<svg width="41" height="16" viewBox="0 0 41 16" fill="none" xmlns="http://www.w3.org/2000/svg">
<g clip-path="url(#clip0_101_1868)">
<path d="M32.3343 0.145996H8.63428C4.49214 0.145996 1.13428 3.50386 1.13428 7.646C1.13428 11.7881 4.49214 15.146 8.63428 15.146H32.3343C36.4764 15.146 39.8343 11.7881 39.8343 7.646C39.8343 3.50386 36.4764 0.145996 32.3343 0.145996Z" fill="white"/>
<path fill-rule="evenodd" clip-rule="evenodd" d="M9.16094 3.146H6.53369V12.146H9.16094V10.2303L9.83463 9.29179L11.3727 12.146H14.5044H17.4937V3.146H14.5044V12.1447L11.7096 7.05467L14.4491 3.146H11.3952L9.16094 6.51462V3.146ZM23.7156 7.65892C23.7156 8.95747 22.9124 9.52315 21.6673 9.52315H21.2134V5.76905H21.6673C22.9124 5.76905 23.7156 6.33459 23.7156 7.63315V7.65892ZM21.6093 3.146H18.4908V12.146H21.5164C24.8096 12.146 26.4622 10.256 26.4622 7.59452V7.56902C26.4622 4.90754 24.8446 3.146 21.6093 3.146ZM27.9541 8.8362L26.4624 10.6833C27.5244 11.6503 29.0519 12.146 30.7465 12.146C32.9898 12.146 34.4339 11.0304 34.4339 9.20806V9.18334C34.4339 7.43528 33.0018 6.79071 30.8657 6.3815C29.9827 6.20793 29.756 6.05935 29.756 5.82371V5.79899C29.756 5.58821 29.9469 5.43949 30.3646 5.43949C31.1403 5.43949 32.083 5.69984 32.8706 6.29485L34.2309 4.33614C33.2643 3.54271 32.071 3.146 30.4601 3.146C28.1569 3.146 26.916 4.42292 26.916 6.07171V6.09656C26.916 7.93127 28.5627 8.48906 30.4363 8.88578C31.3311 9.07171 31.5938 9.20806 31.5938 9.45593V9.48078C31.5938 9.71628 31.3789 9.85264 30.8778 9.85264C29.8991 9.85264 28.8609 9.5552 27.9541 8.8362Z" fill="black"/>
</g>
<defs>
<clipPath id="clip0_101_1868">
<rect width="40" height="15" fill="white" transform="translate(0.57666 0.145996)"/>
</clipPath>
</defs>
</svg>
