<svg width="19" height="21" viewBox="0 0 19 21" fill="none" xmlns="http://www.w3.org/2000/svg">
<path d="M11.1026 15.2961C11.0426 16.8401 9.74463 18.0781 8.15063 18.0781C7.78663 18.0781 7.43863 18.0141 7.11463 17.8941C7.43664 18.0121 7.78464 18.0781 8.15063 18.0781C9.74463 18.0781 11.0446 16.8401 11.1026 15.2961L11.1086 1.51609H13.6846C13.9326 2.82609 14.7286 3.95009 15.8306 4.65209C15.8306 4.65209 15.8306 4.65209 15.8326 4.65409C16.6006 5.14209 17.5146 5.42809 18.4966 5.42809V6.19409V8.86609C16.6726 8.86609 14.9826 8.29609 13.6026 7.32809V14.3161C13.6026 17.8061 10.6986 20.6441 7.12664 20.6441C5.74663 20.6441 4.46663 20.2181 3.41463 19.4961L3.41263 19.4941C1.74463 18.3481 0.650635 16.4541 0.650635 14.3141C0.650635 10.8241 3.55463 7.98609 7.12664 7.98609C7.42264 7.98609 7.71264 8.01009 7.99864 8.04809V8.86209C4.74063 8.93609 2.07063 11.3721 1.71663 14.4821C2.07063 11.3721 4.74264 8.93809 7.99864 8.86209V11.5581C7.72264 11.4741 7.43063 11.4241 7.12664 11.4241C5.49663 11.4241 4.16863 12.7201 4.16863 14.3141C4.16863 15.4241 4.81263 16.3881 5.75463 16.8721C6.16463 17.0841 6.63064 17.2041 7.12664 17.2041C8.72064 17.2041 10.0186 15.9661 10.0786 14.4221L10.0846 0.64209H13.6026C13.6026 0.94009 13.6326 1.23209 13.6866 1.51409H11.1086L11.1026 15.2961Z" fill="white"/>
</svg>
