<?xml version="1.0" encoding="UTF-8" standalone="no"?><!DOCTYPE svg PUBLIC "-//W3C//DTD SVG 1.0//EN"
	"http://www.w3.org/TR/2001/REC-SVG-20010904/DTD/svg10.dtd">
<svg
   xmlns:svg="http://www.w3.org/2000/svg"
   xmlns="http://www.w3.org/2000/svg"
   version="1.0"
   width="576.46515"
   height="600"
   id="svg2">
  <defs
     id="defs4" />
  <g
     transform="translate(-286.07645,-35.84735)"
     id="layer1">
    <g
       id="g2179">
      <path
         d="M 255.5625,29.625 L 254.75,44.5 L 253.15625,73.09375 L 252.9375,77.3125 L 249.375,74.875 L 230.8125,62.0625 L 224.0625,57.375 L 223.03125,65.5625 L 221.53125,77.1875 L 221.53125,77.21875 L 221.21875,79.96875 L 218.4375,79.125 L 192.25,71.09375 L 184.03125,68.5625 L 185.90625,76.96875 L 189.03125,91.0625 L 189.28125,92.1875 L 188.5625,93.125 L 167.90625,119.6875 L 166.875,121 L 165.25,120.375 L 165.21875,120.375 L 127.9375,106.34375 L 121.1875,103.8125 L 121.1875,111.03125 L 121.1875,128.1875 L 121.1875,129.375 L 121.71875,130.4375 L 126.875,140.78125 L 126.9375,140.90625 L 127,141 L 138.53125,161.3125 L 138.5625,161.34375 L 142.03125,167.375 L 135.59375,164.65625 L 99.40625,149.4375 L 85.96875,143.78125 L 93.125,156.5 L 109.09375,184.90625 L 111.3125,188.875 L 106.8125,188.46875 L 106.78125,188.46875 L 86.46875,186.625 L 78.21875,185.875 L 81.40625,193.53125 L 91.46875,217.71875 L 92.71875,220.65625 L 89.4375,220.96875 L 70.4375,222.71875 L 61.34375,223.5625 L 66.9375,230.75 L 79.3125,246.625 L 79.84375,247.3125 L 79.84375,248.1875 L 79.84375,265.90625 L 79.84375,267.9375 L 77.71875,268.21875 L 47.1875,272.1875 L 31.6875,274.21875 L 45.46875,281.5625 L 78.5,299.1875 L 78.53125,299.21875 L 83.0625,301.625 L 78.3125,303.5625 L 50.8125,314.90625 L 35.5625,321.1875 L 51.71875,324.4375 L 72.03125,328.5 L 77.46875,329.59375 L 72.90625,332.78125 L 58.34375,343.03125 L 52.96875,346.78125 L 58.03125,350.96875 L 67.625,358.90625 L 68.90625,359.96875 L 68.28125,361.53125 L 68.25,361.5625 L 68.25,361.59375 L 59.84375,383.75 L 57.28125,390.5 L 64.53125,390.5 L 89.25,390.5 L 90.65625,390.5 L 91.40625,391.6875 L 100.1875,406.375 L 100.6875,407.1875 L 100.40625,408.1875 L 100.40625,408.21875 L 91.53125,441.53125 L 89.53125,449.03125 L 97.1875,447.75 L 121.375,443.6875 L 121.40625,443.6875 L 123.78125,443.28125 L 124.09375,445.625 L 124.09375,445.65625 L 127.03125,466.34375 L 127.0625,466.34375 L 127.0625,466.375 L 127.21875,467.34375 L 126.59375,468.1875 L 115.90625,482.46875 L 105.21875,496.75 L 121.78125,490.09375 L 141.53125,482.15625 L 145.25,480.6875 L 144.75,484.75 L 141.34375,511.6875 L 139.59375,525.375 L 149.71875,515.96875 L 179.15625,488.5625 L 183.6875,484.34375 L 183.21875,490.53125 L 181.28125,515.90625 L 180.59375,524.78125 L 188.53125,520.75 L 194.53125,517.71875 L 196.09375,516.9375 L 197.3125,518.15625 L 213.1875,534.03125 L 214.40625,535.25 L 216.09375,535.46875 L 237.21875,538.15625 L 238.90625,538.34375 L 239.25,539.96875 L 239.25,540 L 243.78125,559.9375 L 246.6875,572.78125 L 253.03125,561.25 L 271.125,528.40625 L 272.53125,525.90625 L 274.71875,527.71875 L 287.9375,538.59375 L 290.4375,540.6875 L 293.34375,539.21875 L 306.75,532.46875 L 308.1875,531.75 L 309.40625,532.875 L 309.40625,532.90625 L 318.46875,541.21875 L 325.21875,547.40625 L 326.78125,538.375 L 330.65625,515.9375 L 331.6875,510.03125 L 335.0625,515.03125 L 348.0625,534.40625 L 355.25,545.09375 L 357.15625,532.34375 L 358.625,522.46875 L 359.125,519.09375 L 362.15625,520.75 L 392.15625,537.375 L 399.09375,541.21875 L 399.5625,533.28125 L 401.21875,505.25 L 401.21875,505.21875 L 401.3125,503.5625 L 402.875,503 L 417.5,498.03125 L 417.53125,498.03125 L 418.3125,497.75 L 419.1875,498.0625 L 432.40625,502.71875 L 438.09375,504.75 L 439,498.78125 L 442.15625,478.46875 L 442.75,474.53125 L 445.90625,476.90625 L 457.0625,485.375 L 469.0625,494.5 L 464.90625,480.03125 L 461.5,468.125 L 461.28125,467.40625 L 461.5625,466.71875 L 461.5625,466.6875 L 461.59375,466.65625 L 467.9375,448.65625 L 468.75,446.4375 L 470.96875,447.1875 L 495.40625,455.5 L 507.59375,459.625 L 501.40625,448.34375 L 480.34375,410.0625 L 479.21875,407.96875 L 481.34375,406.78125 L 481.375,406.78125 L 481.375,406.75 L 502.78125,394.78125 L 506.8125,392.5 L 504.875,388.3125 L 499.25,376.125 L 497.65625,372.65625 L 501.40625,372.6875 L 532.6875,372.96875 L 543.1875,373.0625 L 536.65625,364.875 L 512.1875,334.125 L 510.125,331.5625 L 513.25,330.375 L 536.15625,321.8125 L 548.59375,317.125 L 536.15625,312.4375 L 514.84375,304.40625 L 512.46875,303.5 L 513.5,301.125 L 522.90625,279.8125 L 522.9375,279.78125 L 522.9375,279.75 L 523.3125,278.875 L 524.25,278.53125 L 524.25,278.5 L 524.28125,278.5 L 536.75,273.71875 L 548.71875,269.09375 L 536.78125,264.375 L 509.375,253.59375 L 505.96875,252.21875 L 508.625,249.65625 L 532.25,226.65625 L 541.0625,218.0625 L 528.75,218.0625 L 493.875,218.0625 L 491.21875,218.0625 L 491.5625,215.375 L 493.75,196.90625 L 494.15625,193.5625 L 491.21875,191.9375 L 476.53125,183.8125 L 473.625,182.1875 L 476.15625,179.90625 L 495.625,162.5625 L 501.75,157.125 L 494.09375,154.1875 L 484.5,150.46875 L 484.46875,150.46875 L 482.25,149.625 L 483.0625,147.4375 L 488.59375,132.40625 L 491.40625,124.78125 L 483.3125,125.71875 L 461.4375,128.3125 L 461.40625,128.3125 L 458.09375,128.71875 L 458.8125,125.46875 L 462.03125,110.71875 L 464.59375,99.0625 L 454.46875,105.40625 L 441.75,113.4375 L 440.40625,114.28125 L 439.15625,113.40625 L 439.15625,113.375 L 429.71875,106.84375 L 427.09375,105 L 424.34375,106.625 L 396.84375,122.6875 L 393.15625,124.84375 L 393.28125,120.625 L 393.28125,120.59375 L 394.125,89 L 394.28125,83.0625 L 388.375,83.9375 L 372.875,86.25 L 372.84375,86.25 L 372.8125,86.25 L 371.40625,86.46875 L 370.59375,85.21875 L 362.5,72.78125 L 359.875,68.75 L 355.75,71.1875 L 339.78125,80.59375 L 336.90625,82.28125 L 336.25,79.03125 L 329.15625,43.59375 L 326.40625,29.96875 L 319.84375,42.21875 L 298.59375,81.71875 L 296.15625,86.25 L 294.3125,81.46875 L 282.21875,50 L 280.96875,46.78125 L 277.53125,46.78125 L 268.3125,46.78125 L 267.09375,46.75 L 266.40625,45.71875 L 266.375,45.6875 L 266.375,45.65625 L 263.875,41.96875 L 255.5625,29.625 z "
         transform="translate(286.07645,35.84735)"
         style="opacity:1;fill:#ffffff;fill-opacity:1;stroke:none;stroke-width:10;stroke-miterlimit:4;stroke-dasharray:none;stroke-opacity:1"
         id="path2168" />
      <path
         d="M 533.42301,35.84735 L 532.2232,57.813201 L 530.19274,95.28436 L 512.3801,83.009325 L 502.4124,76.087313 L 500.9357,88.177761 L 499.08983,103.03701 L 469.09445,93.807664 L 456.91171,90.115924 L 459.68051,102.48325 L 464.84895,125.64892 L 449.62052,145.21514 L 407.44239,129.43295 L 397.4747,125.64892 L 397.4747,136.35496 L 397.4747,165.88888 L 397.4747,167.55016 L 398.21304,169.11915 L 404.11983,180.93272 L 404.21212,181.11731 L 404.39671,181.3019 L 405.41194,183.14777 L 369.32518,167.91934 L 349.48208,159.52063 L 360.00354,178.3485 L 379.66205,213.32774 L 361.20335,211.66645 L 349.02061,210.55893 L 353.72758,221.81874 L 364.61821,248.03009 L 342.19089,250.06055 L 328.71604,251.26036 L 337.02246,261.96641 L 356.12721,286.51648 L 356.12721,295.19207 L 309.05753,301.46802 L 286.07645,304.42142 L 306.56561,315.31205 L 346.25181,336.35496 L 310.53423,351.02963 L 287.92232,360.25898 L 311.82633,365.05824 L 339.2375,370.50356 L 330.93109,376.31805 L 322.99385,381.85566 L 330.37733,388.03932 L 343.39071,398.92995 L 332.96154,426.06424 L 329.17751,436.12423 L 339.88356,436.12423 L 371.07876,436.12423 L 376.24719,444.70753 L 365.26427,485.87042 L 362.31088,496.94564 L 373.57068,495.09977 L 401.6279,490.3928 L 403.01231,500.54509 L 378.27765,533.58616 L 362.49546,554.62908 L 386.95324,544.84597 L 419.62513,531.74029 L 415.28734,566.62723 L 412.70312,586.83951 L 427.65467,572.90319 L 458.01923,544.56909 L 456.54253,563.95072 L 455.5273,576.9641 L 467.24858,571.14961 L 480.16967,564.68907 L 494.10598,578.62538 L 495.95185,580.47125 L 498.44378,580.74813 L 516.90248,583.05547 L 524.56284,616.92718 L 528.90063,635.84735 L 538.31457,618.86535 L 561.48023,576.77951 L 571.44793,584.99364 L 575.13967,588.03932 L 579.47747,585.91657 L 592.58314,579.36373 L 607.90386,593.39234 L 617.87156,602.5294 L 620.1789,589.14684 L 623.22458,571.61108 L 636.60714,591.54647 L 647.22089,607.32866 L 649.98969,588.50079 L 652.7585,570.31897 L 683.76911,587.48556 L 694.10598,593.20776 L 694.75204,581.48648 L 696.6902,546.59954 L 704.25827,543.92303 L 723.54761,550.84504 L 731.94632,553.79843 L 733.33072,545.03055 L 735.91494,528.04855 L 755.11198,542.53863 L 772.83233,556.10577 L 766.64867,534.60139 L 757.60391,503.59077 L 760.83418,494.63831 L 796.27488,506.54417 L 814.27211,512.63554 L 805.13506,496.02271 L 778.55453,447.56862 L 799.50515,435.84735 L 805.50423,432.52478 L 802.64313,426.34112 L 798.95139,418.40388 L 834.20751,418.68076 L 849.71281,418.86535 L 840.022,406.7749 L 812.24166,371.79567 L 844.08291,359.88981 L 862.54161,352.96779 L 844.1752,346.04578 L 811.68789,333.86304 L 816.67174,322.32635 L 843.99062,311.89719 L 861.71097,305.15976 L 844.08291,298.14546 L 809.74973,284.57831 L 838.26842,256.79797 L 851.2818,244.15376 L 833.09998,244.15376 L 788.24535,244.15376 L 789.99892,229.01763 L 790.64498,224.12608 L 786.30718,221.72645 L 776.43178,216.18884 L 797.29011,197.63784 L 806.42717,189.51602 L 794.98277,185.17822 L 780.76957,179.8252 L 787.96847,160.25898 L 792.12167,148.90688 L 780.12352,150.38358 L 756.68097,153.24467 L 761.48023,131.46341 L 765.26427,114.29682 L 750.31272,123.61846 L 726.77788,138.47771 L 717.54853,132.01717 L 713.6722,129.24837 L 709.61129,131.648 L 689.49131,143.36927 L 690.22966,116.32728 L 690.50654,107.55939 L 681.73866,108.8515 L 662.26473,111.7126 L 652.85079,97.40711 L 649.06676,91.408033 L 642.97539,95.007479 L 629.86971,102.76013 L 620.73266,57.351734 L 616.76404,37.231752 L 606.98093,55.321277 L 583.63067,98.791512 L 575.50885,77.564009 L 573.66298,72.949334 L 568.67913,72.857041 L 558.34226,72.857041 L 545.79034,54.121462 L 533.42301,35.84735 z M 610.30349,80.425107 L 617.41009,115.86581 L 619.44055,126.01809 L 628.39302,120.75736 L 644.35979,111.34343 L 652.48162,123.80305 L 655.06584,127.77167 L 659.68051,127.03332 L 675.18582,124.72598 L 674.35518,156.29036 L 673.89371,169.58062 L 685.4304,162.8432 L 712.93386,146.78413 L 722.34779,153.33697 L 726.31641,156.10577 L 730.46962,153.52155 L 743.20612,145.49202 L 739.97585,160.25898 L 737.76081,170.41126 L 748.09768,169.11915 L 769.97124,166.53494 L 764.43363,181.57878 L 761.9417,188.40849 L 768.77142,190.99271 L 778.36994,194.68445 L 758.89602,212.03563 L 751.14336,218.95764 L 760.18813,224.03378 L 774.86279,232.15561 L 772.64775,250.61431 L 771.63252,258.92072 L 779.93893,258.92072 L 814.82587,258.92072 L 791.19874,281.9018 L 782.98462,289.83904 L 793.59837,294.08454 L 821.00954,304.88288 L 808.54992,309.68214 L 805.59652,310.78967 L 804.39671,313.65076 L 794.98277,334.97056 L 791.84479,342.16945 L 799.13598,344.93826 L 820.45578,352.96779 L 797.56699,361.55109 L 787.96847,365.15053 L 794.33672,373.08777 L 818.79449,403.82151 L 787.507,403.54463 L 775.87802,403.45233 L 780.76957,414.06609 L 786.39948,426.24883 L 764.98739,438.24698 L 758.52684,441.84643 L 762.03399,448.30697 L 783.07691,486.60877 L 758.61914,478.30236 L 751.78942,475.99502 L 749.29749,482.82474 L 742.92924,500.82197 L 742.0986,503.03701 L 742.74465,505.34435 L 746.15951,517.25021 L 734.992,508.75921 L 725.1166,501.28344 L 723.27073,513.55847 L 720.13275,533.86304 L 706.84249,529.15607 L 704.35056,528.32543 L 701.95093,529.15607 L 687.27627,534.13992 L 682.5693,535.8012 L 682.29242,540.78505 L 680.63113,568.84227 L 650.63575,552.22945 L 641.31411,547.06101 L 639.74512,557.58247 L 638.26842,567.45787 L 625.25504,548.07624 L 614.91817,532.84781 L 611.78019,550.93734 L 607.90386,573.36466 L 598.8591,565.05824 L 595.07507,561.55109 L 590.55268,563.85843 L 577.17013,570.59585 L 563.97216,559.70522 L 557.14244,554.07531 L 552.80465,561.82797 L 534.71512,594.68445 L 530.19274,574.74906 L 529.08522,569.67292 L 523.91678,569.02686 L 502.78157,566.35035 L 486.90709,550.47587 L 483.12306,546.69184 L 478.3238,549.09147 L 472.32472,552.13715 L 474.26288,526.75644 L 475.73958,507.83627 L 461.80326,520.75736 L 432.36164,548.16853 L 435.7765,521.21883 L 437.34549,508.75921 L 425.71651,513.37388 L 405.9657,521.31112 L 416.67174,507.00563 L 418.51761,504.51371 L 418.05615,501.46802 L 415.10275,480.79428 L 414.08753,473.31851 L 406.61175,474.61062 L 382.43086,478.67153 L 391.29103,445.35358 L 392.12167,442.30789 L 390.55268,439.63138 L 381.69251,424.86442 L 379.47747,421.35727 L 375.32426,421.35727 L 350.5896,421.35727 L 358.98831,399.20683 L 360.92647,394.31528 L 356.86556,390.90042 L 347.26704,382.96318 L 361.84941,372.7186 L 375.97031,362.8432 L 359.0806,359.42834 L 338.77603,355.36742 L 366.2795,344.01532 L 380.86187,338.01625 L 366.92555,330.63277 L 333.88448,313.00471 L 364.43363,309.03609 L 370.89417,308.20545 L 370.89417,301.7449 L 370.89417,284.02455 L 370.89417,281.44034 L 369.32518,279.40988 L 356.95785,263.5354 L 375.97031,261.78182 L 386.0303,260.85889 L 382.15398,251.62954 L 372.09399,227.44864 L 392.39855,229.29451 L 406.33487,230.58662 L 399.50515,218.31159 L 383.53838,189.88519 L 419.71743,205.11362 L 439.83741,213.60462 L 428.94678,194.68445 L 417.41009,174.37988 L 412.24166,164.04301 L 412.24166,146.87642 L 449.52823,160.90503 L 454.60437,162.8432 L 457.92693,158.5977 L 478.60068,132.01717 L 480.72343,129.24837 L 479.98508,125.83351 L 476.8471,111.7126 L 503.05845,119.74214 L 511.54945,122.32635 L 512.56468,113.65076 L 514.04138,102.02178 L 532.59237,114.85058 L 543.483,122.32635 L 544.22135,109.22068 L 545.79034,80.609694 L 548.28226,84.301434 L 550.40501,87.531706 L 554.37364,87.624 L 563.60298,87.624 L 575.69343,119.09608 L 581.41563,134.04763 L 589.07599,119.92672 L 610.30349,80.425107 z M 580.4004,162.93549 C 483.34973,163.83016 404.85818,242.87822 404.85818,340.139 C 404.85818,374.14795 414.43845,405.90253 431.06953,432.89396 L 580.4004,162.93549 z M 583.72297,162.93549 L 733.05384,432.89396 C 749.68492,405.90253 759.26519,374.14795 759.26519,340.139 C 759.26519,242.87822 680.77366,163.83019 583.72297,162.93549 z M 506.93478,301.7449 L 582.06168,437.60093 L 657.18859,301.7449 L 506.93478,301.7449 z M 582.06168,437.60093 L 434.11521,437.60093 C 465.82876,485.60946 520.25845,517.3425 582.06168,517.3425 C 643.86492,517.3425 698.2946,485.60946 730.00815,437.60093 L 582.06168,437.60093 z "
         style="opacity:1;fill:#000000;fill-opacity:1;stroke:none;stroke-width:0.25;stroke-miterlimit:4;stroke-dasharray:none;stroke-opacity:1"
         id="path2401" />
    </g>
  </g>
</svg>
