<svg width="26" height="26" viewBox="0 0 26 26" fill="none" xmlns="http://www.w3.org/2000/svg">
<g clip-path="url(#clip0_284_5344)">
<path d="M8.37372 23.4736C4.34312 22.02 1.46155 18.1609 1.46155 13.6293C1.46155 7.85159 6.14541 3.16772 11.9231 3.16772C17.7008 3.16772 22.3846 7.85159 22.3846 13.6293C22.3846 19.407 17.7008 24.0908 11.9231 24.0908" stroke="white" stroke-width="0.961538" stroke-miterlimit="10" stroke-linecap="round"/>
<path d="M6.69177 19.5142L7.22782 16.8555C7.43775 15.7365 8.30106 14.9373 9.29954 14.9373H14.4547C15.4532 14.9373 16.3159 15.7365 16.5264 16.8555L17.1534 19.5142" stroke="white" stroke-width="0.961538" stroke-miterlimit="10" stroke-linecap="round"/>
<path d="M11.9236 12.976C13.729 12.976 15.1928 11.5123 15.1928 9.70673C15.1928 7.90118 13.729 6.4375 11.9236 6.4375C10.118 6.4375 8.6543 7.90118 8.6543 9.70673C8.6543 11.5123 10.118 12.976 11.9236 12.976Z" stroke="white" stroke-width="0.961538" stroke-miterlimit="10" stroke-linecap="round"/>
<path d="M20.6923 9.41776C23.082 9.41776 25.0192 7.48053 25.0192 5.09084C25.0192 2.70115 23.082 0.763916 20.6923 0.763916C18.3026 0.763916 16.3654 2.70115 16.3654 5.09084C16.3654 7.48053 18.3026 9.41776 20.6923 9.41776Z" fill="#9EC155" stroke="white" stroke-width="0.961538"/>
</g>
<defs>
<clipPath id="clip0_284_5344">
<rect width="26" height="25" fill="white" transform="translate(0 0.283203)"/>
</clipPath>
</defs>
</svg>
