<svg width="22" height="22" viewBox="0 0 22 22" fill="none" xmlns="http://www.w3.org/2000/svg">
<g clip-path="url(#clip0_284_5356)">
<path d="M18.7044 6.21887V18.5445C18.7044 19.553 17.8867 20.3706 16.8783 20.3706H3.61906C2.61054 20.3706 1.79297 19.553 1.79297 18.5445V5.28531C1.79297 4.27679 2.61054 3.45923 3.61906 3.45923H15.4886" stroke="white" stroke-width="0.913043"/>
<path d="M20.3212 3.26479C20.6777 3.62135 20.6777 4.19946 20.3212 4.55603L11.9982 12.879L9.00867 9.88951L17.3316 1.56649C17.6883 1.20993 18.2663 1.20993 18.6229 1.56649L20.3212 3.26479Z" stroke="white" stroke-width="0.913043" stroke-linecap="round" stroke-linejoin="round"/>
<path d="M11.9994 12.8779L7.51514 14.3727L9.00991 9.88843L11.9994 12.8779Z" stroke="white" stroke-width="0.913043" stroke-linejoin="round"/>
</g>
<defs>
<clipPath id="clip0_284_5356">
<rect width="21" height="21" fill="white" transform="translate(0.879883 0.283203)"/>
</clipPath>
</defs>
</svg>
