<svg width="22" height="22" viewBox="0 0 22 22" fill="none" xmlns="http://www.w3.org/2000/svg">
<g clip-path="url(#clip0_284_5362)">
<path d="M19.3045 5.43136C19.5016 5.66019 19.7083 5.88902 19.8991 6.13092C23.009 10.0929 22.3921 15.9346 18.5254 19.1709C15.355 21.8221 10.865 22.0019 7.55792 19.5959C7.15407 19.3017 6.79156 18.9486 6.41634 18.6152C6.22236 18.4452 6.1524 18.2425 6.34638 18.0202C6.50219 17.8405 6.68663 17.8666 6.91876 18.0954C8.84259 19.9751 11.1226 20.7695 13.7619 20.4851C17.4824 20.0862 20.6368 16.8924 21.082 13.071C21.5813 8.78861 19.1486 4.90178 15.1324 3.71187C12.0257 2.79002 9.2687 3.56477 6.89968 5.81056C6.817 5.88902 6.74386 5.97401 6.66119 6.0492C6.49901 6.19304 6.33048 6.20284 6.17148 6.0492C6.00931 5.89556 6.01567 5.71576 6.1524 5.54904C6.24144 5.4379 6.3432 5.33002 6.44495 5.23195C8.00946 3.71187 9.85698 2.82924 12.0066 2.63964C12.137 2.62657 12.2642 2.61022 12.4041 2.59388C12.4041 2.07411 12.4041 1.57722 12.4041 1.03784C12.0161 1.03784 11.6473 1.04111 11.2752 1.03784C10.9318 1.03457 10.7919 0.923425 10.795 0.661906C10.7919 0.403655 10.9445 0.285972 11.2784 0.282703C12.2928 0.282703 13.3072 0.279434 14.3216 0.282703C14.6364 0.282703 14.8144 0.426538 14.7985 0.674982C14.7795 0.97246 14.5791 1.03784 14.3279 1.03457C13.9463 1.0313 13.5616 1.03457 13.1609 1.03457C13.1609 1.56414 13.1609 2.06103 13.1609 2.59388C15.2819 2.70829 17.1676 3.44708 18.7639 4.88217" fill="white"/>
<path d="M14.1934 10.981C14.7499 11.8996 14.6132 12.9227 13.8659 13.5765C13.1123 14.2369 12.1265 14.2401 11.4047 13.5864C10.6669 12.9195 10.5047 11.9126 11.0008 11.1085C11.5986 10.1441 12.5303 9.91201 13.6942 10.4547C14.3111 9.81721 14.9343 9.17648 15.5576 8.53903C15.6371 8.46057 15.7198 8.34943 15.8152 8.32982C15.936 8.30693 16.1141 8.32328 16.1936 8.40173C16.2699 8.48019 16.2953 8.66325 16.2699 8.7842C16.2476 8.89208 16.1395 8.98688 16.0537 9.07514C15.4336 9.70933 14.8167 10.3402 14.1934 10.981ZM12.648 13.2889C13.3285 13.2921 13.8436 12.7724 13.8436 12.0793C13.8436 11.4386 13.2903 10.9123 12.6226 10.9189C11.9675 10.9254 11.4492 11.4354 11.4428 12.0826C11.4365 12.756 11.9643 13.2856 12.648 13.2889Z" fill="white"/>
<path d="M4.38094 14.5222C5.36353 14.5222 6.34611 14.5222 7.3287 14.5222C7.4082 14.5222 7.51313 14.4961 7.56719 14.5353C7.67849 14.6203 7.83748 14.7412 7.84066 14.8491C7.84384 14.9766 7.72618 15.1368 7.61489 15.2283C7.53539 15.2937 7.38276 15.2741 7.26192 15.2741C5.33809 15.2773 3.41425 15.2741 1.49042 15.2741C1.44908 15.2741 1.41092 15.2741 1.36959 15.2741C1.03888 15.2643 0.879883 15.1368 0.879883 14.8916C0.883063 14.6464 1.04206 14.5255 1.37277 14.5255C2.37443 14.5222 3.37927 14.5222 4.38094 14.5222Z" fill="white"/>
<path d="M4.36262 8.27866C5.36428 8.27866 6.36913 8.27866 7.3708 8.27866C7.69832 8.27866 7.85732 8.40288 7.8605 8.65132C7.86368 8.89976 7.7015 9.02726 7.37398 9.02726C5.36747 9.02726 3.36413 9.03052 1.35762 9.02726C1.02374 9.02726 0.848843 8.86707 0.887001 8.60556C0.92516 8.35384 1.09051 8.27539 1.32583 8.27539C2.33703 8.28193 3.34823 8.27866 4.36262 8.27866Z" fill="white"/>
<path d="M5.89146 11.4077C6.90267 11.4077 7.91705 11.4077 8.92826 11.4077C9.12859 11.4077 9.29712 11.4534 9.35436 11.6725C9.4116 11.9013 9.32574 12.0615 9.09997 12.1203C9.00457 12.1465 8.89964 12.1465 8.79788 12.1465C6.85497 12.1465 4.90887 12.1465 2.96278 12.1465C2.92144 12.1465 2.8801 12.1465 2.84194 12.1465C2.54621 12.1301 2.3745 11.9863 2.39994 11.7509C2.42856 11.4763 2.60981 11.4011 2.85148 11.4044C3.86587 11.4109 4.88025 11.4077 5.89146 11.4077Z" fill="white"/>
</g>
<defs>
<clipPath id="clip0_284_5362">
<rect width="21" height="21" fill="white" transform="translate(0.879883 0.283203)"/>
</clipPath>
</defs>
</svg>
