<svg width="22" height="20" viewBox="0 0 22 20" fill="none" xmlns="http://www.w3.org/2000/svg">
<g clip-path="url(#clip0_284_5325)">
<path d="M-0.0100098 1.91304C-0.0100098 0.856499 0.846489 0 1.90303 0H20.077C21.1335 0 21.99 0.856499 21.99 1.91304C21.99 2.96959 21.1335 3.82609 20.077 3.82609H1.90303C0.846488 3.82609 -0.0100098 2.96959 -0.0100098 1.91304Z" fill="white"/>
<path d="M-0.0100098 9.56515C-0.0100098 8.5086 0.846489 7.6521 1.90303 7.6521H20.077C21.1335 7.6521 21.99 8.5086 21.99 9.56515C21.99 10.6217 21.1335 11.4782 20.077 11.4782H1.90303C0.846488 11.4782 -0.0100098 10.6217 -0.0100098 9.56515Z" fill="white"/>
<path d="M-0.0100098 17.2173C-0.0100098 16.1607 0.846489 15.3042 1.90303 15.3042H20.077C21.1335 15.3042 21.99 16.1607 21.99 17.2173C21.99 18.2738 21.1335 19.1303 20.077 19.1303H1.90303C0.846488 19.1303 -0.0100098 18.2738 -0.0100098 17.2173Z" fill="white"/>
</g>
<defs>
<clipPath id="clip0_284_5325">
<rect width="22" height="20" fill="white" transform="translate(-0.0100098)"/>
</clipPath>
</defs>
</svg>
