<svg width="19" height="22" viewBox="0 0 19 22" fill="none" xmlns="http://www.w3.org/2000/svg">
<g clip-path="url(#clip0_284_5373)">
<path d="M1.40729 17.3664C1.34041 16.836 1.33527 16.4041 1.76996 16.0416C2.20207 15.6817 2.5776 15.2499 2.95056 14.8233C3.07144 14.6847 3.16661 14.4608 3.16919 14.2768C3.18462 12.6801 3.17434 11.086 3.1769 9.49187C3.17947 6.87944 4.77161 4.60023 7.16882 3.77652C7.66524 3.60591 7.69354 3.60325 7.66267 3.04611C7.62151 2.26504 8.26454 1.64393 8.93072 1.59861C9.61748 1.55062 10.2965 2.10244 10.3146 2.87017C10.3273 3.49662 10.5872 3.70188 11.1119 3.89648C13.3111 4.71485 14.8157 6.98874 14.8209 9.40656C14.826 11.0113 14.826 12.6188 14.8183 14.2236C14.8157 14.4874 14.8928 14.6847 15.0781 14.866C15.5333 15.3165 15.9758 15.7857 16.4207 16.2495C16.6008 16.4361 16.7217 17.0253 16.5931 17.2332C16.5468 17.3105 16.3976 17.3531 16.2973 17.3531C15.1733 17.3637 14.0518 17.3637 12.9278 17.3637C10.6386 17.3637 8.34942 17.3637 6.06024 17.3637C4.5144 17.3637 2.97628 17.3664 1.40729 17.3664Z" stroke="white" stroke-width="0.954545" stroke-miterlimit="10"/>
<path d="M9.00478 19.0299C9.43007 19.0299 9.85536 19.037 10.2806 19.0275C10.5145 19.0226 10.5656 19.1355 10.5255 19.3614C10.392 20.1109 9.74403 20.685 9.01591 20.6874C8.29225 20.6898 7.64207 20.1204 7.49733 19.3709C7.45058 19.1235 7.51738 19.0226 7.76008 19.0299C8.17202 19.0395 8.5884 19.0299 9.00478 19.0299Z" stroke="white" stroke-width="0.954545" stroke-miterlimit="10"/>
</g>
<defs>
<clipPath id="clip0_284_5373">
<rect width="18" height="21" fill="white" transform="translate(0.0102539 0.283203)"/>
</clipPath>
</defs>
</svg>
