<svg width="21" height="20" viewBox="0 0 21 20" fill="none" xmlns="http://www.w3.org/2000/svg">
<g clip-path="url(#clip0_283_26299)">
<path d="M8.87144 16.2847C13.2255 16.2847 16.7553 12.8114 16.7553 8.52698C16.7553 4.24253 13.2255 0.769287 8.87144 0.769287C4.51727 0.769287 0.987549 4.24253 0.987549 8.52698C0.987549 12.8114 4.51727 16.2847 8.87144 16.2847Z" stroke="white" stroke-width="0.769231" stroke-miterlimit="10" stroke-linecap="round"/>
<path d="M3.88671 11.3428C2.62461 9.18212 2.93193 6.37584 4.80866 4.52979" stroke="white" stroke-width="0.769231" stroke-miterlimit="10" stroke-linecap="round"/>
<path d="M8.025 14.1194C7.1464 13.9915 6.29274 13.6633 5.53955 13.134" stroke="white" stroke-width="0.769231" stroke-miterlimit="10" stroke-linecap="round"/>
<path d="M16.0527 13.5471L19.6433 17.0803C20.1653 17.594 20.1653 18.4263 19.6433 18.94C19.1212 19.4537 18.2754 19.4537 17.7533 18.94L14.9186 16.1505" stroke="white" stroke-width="0.769231" stroke-miterlimit="10" stroke-linecap="round"/>
</g>
<defs>
<clipPath id="clip0_283_26299">
<rect width="21" height="20" fill="white" transform="translate(-0.00952148)"/>
</clipPath>
</defs>
</svg>
