<svg width="97" height="97" viewBox="0 0 97 97" fill="none" xmlns="http://www.w3.org/2000/svg">
<mask id="mask0_34_130" style="mask-type:alpha" maskUnits="userSpaceOnUse" x="0" y="0" width="97" height="97">
<path d="M0 97L0 0H97V97H0Z" fill="#D9D9D9"/>
</mask>
<g mask="url(#mask0_34_130)">
<path d="M86.0049 29.3455C87.567 30.9076 87.567 33.4403 86.0049 35.0024L51.2451 69.7622C49.683 71.3243 47.1503 71.3243 45.5882 69.7622L10.8284 35.0024C9.26633 33.4403 9.26633 30.9076 10.8284 29.3455L12.3455 27.8284C13.9076 26.2663 16.4403 26.2663 18.0024 27.8284L45.5882 55.4143C47.1503 56.9764 49.683 56.9764 51.2451 55.4143L78.831 27.8284C80.3931 26.2663 82.9257 26.2663 84.4878 27.8284L86.0049 29.3455Z" fill="white"/>
</g>
</svg>
