<svg width="97" height="97" viewBox="0 0 97 97" fill="none" xmlns="http://www.w3.org/2000/svg">
<mask id="mask0_34_130" style="mask-type:alpha" maskUnits="userSpaceOnUse" x="0" y="0" width="97" height="97">
<path d="M97 97L0 97L0 0L97 0L97 97Z" fill="#D9D9D9"/>
</mask>
<g mask="url(#mask0_34_130)">
<path d="M29.3455 10.9951C30.9076 9.43299 33.4402 9.43299 35.0023 10.9951L69.7622 45.7549C71.3242 47.317 71.3242 49.8497 69.7621 51.4118L35.0023 86.1716C33.4402 87.7337 30.9076 87.7337 29.3455 86.1716L27.8284 84.6545C26.2663 83.0924 26.2663 80.5597 27.8284 78.9976L55.4142 51.4118C56.9763 49.8497 56.9763 47.317 55.4142 45.7549L27.8284 18.169C26.2663 16.6069 26.2663 14.0743 27.8284 12.5122L29.3455 10.9951Z" fill="white"/>
</g>
</svg>
