<svg width="25" height="25" viewBox="0 0 25 25" fill="none" xmlns="http://www.w3.org/2000/svg">
<mask id="mask0_65_138" style="mask-type:alpha" maskUnits="userSpaceOnUse" x="0" y="0" width="25" height="25">
<rect x="0.666016" y="0.333252" width="24" height="24" fill="#D9D9D9"/>
</mask>
<g mask="url(#mask0_65_138)">
<path d="M12.666 7.83325C12.1827 7.83325 11.7702 7.66242 11.4285 7.32075C11.0868 6.97909 10.916 6.56659 10.916 6.08325C10.916 5.59992 11.0868 5.18742 11.4285 4.84575C11.7702 4.50409 12.1827 4.33325 12.666 4.33325C13.1493 4.33325 13.5618 4.50409 13.9035 4.84575C14.2452 5.18742 14.416 5.59992 14.416 6.08325C14.416 6.56659 14.2452 6.97909 13.9035 7.32075C13.5618 7.66242 13.1493 7.83325 12.666 7.83325ZM10.666 20.3333V15.3333H9.66602V10.8333C9.66602 10.2833 9.86185 9.81242 10.2535 9.42075C10.6452 9.02909 11.116 8.83325 11.666 8.83325H13.666C14.216 8.83325 14.6868 9.02909 15.0785 9.42075C15.4702 9.81242 15.666 10.2833 15.666 10.8333V15.3333H14.666V20.3333H10.666Z" fill="white"/>
</g>
</svg>
