<svg width="21" height="21" viewBox="0 0 21 21" fill="none" xmlns="http://www.w3.org/2000/svg">
<path fill-rule="evenodd" clip-rule="evenodd" d="M10.5767 0.850098C7.9163 0.850098 7.58266 0.861363 6.53782 0.908971C5.49515 0.956579 4.78308 1.12213 4.15996 1.36438C3.51578 1.61467 2.96956 1.94959 2.42491 2.49424C1.88035 3.0388 1.54533 3.58512 1.29505 4.2293C1.05289 4.85242 0.887243 5.56448 0.839733 6.60716C0.792027 7.65199 0.780762 7.98554 0.780762 10.646C0.780762 13.3064 0.792027 13.6399 0.839733 14.6848C0.887243 15.7276 1.05289 16.4396 1.29505 17.0627C1.54533 17.7068 1.88035 18.2531 2.42491 18.7978C2.96956 19.3423 3.51578 19.6773 4.15996 19.9276C4.78308 20.1698 5.49515 20.3355 6.53782 20.383C7.58266 20.4307 7.9163 20.4419 10.5767 20.4419C13.2371 20.4419 13.5707 20.4307 14.6155 20.383C15.6582 20.3355 16.3703 20.1698 16.9934 19.9276C17.6376 19.6773 18.1838 19.3423 18.7285 18.7978C19.273 18.2531 19.6079 17.7069 19.8583 17.0627C20.1005 16.4396 20.2661 15.7276 20.3137 14.6848C20.3613 13.6399 20.3726 13.3064 20.3726 10.646C20.3726 7.98564 20.3613 7.65199 20.3137 6.60716C20.2661 5.56448 20.1005 4.85242 19.8583 4.2293C19.6079 3.58512 19.273 3.0388 18.7285 2.49424C18.1838 1.94959 17.6376 1.61467 16.9934 1.36438C16.3703 1.12213 15.6582 0.956579 14.6155 0.908971C13.5707 0.861363 13.2371 0.850098 10.5767 0.850098ZM5.54618 10.646C5.54618 7.86789 7.79836 5.61571 10.5766 5.61571C13.3548 5.61571 15.6069 7.86789 15.6069 10.646C15.6069 13.4242 13.3548 15.6763 10.5766 15.6763C7.79836 15.6763 5.54618 13.4242 5.54618 10.646ZM7.31141 10.646C7.31141 12.4493 8.77325 13.9113 10.5767 13.9113C12.38 13.9113 13.842 12.4493 13.842 10.646C13.842 8.84259 12.38 7.38064 10.5767 7.38064C8.77325 7.38064 7.31141 8.84259 7.31141 10.646ZM14.535 2.67224C13.5021 2.62512 13.1923 2.61513 10.5767 2.61513C7.96107 2.61513 7.65123 2.62512 6.61825 2.67224C5.66315 2.71583 5.14445 2.8754 4.79934 3.00951C4.34207 3.18721 4.01577 3.39948 3.67291 3.74234C3.33015 4.085 3.11787 4.4114 2.94017 4.86858C2.80607 5.21379 2.64649 5.73248 2.6029 6.68758C2.55578 7.72056 2.54579 8.03031 2.54579 10.646C2.54579 13.2616 2.55578 13.5715 2.6029 14.6044C2.64649 15.5595 2.80607 16.0781 2.94017 16.4234C3.11787 16.8805 3.33015 17.2069 3.67301 17.5497C4.01577 17.8924 4.34207 18.1047 4.79934 18.2825C5.14445 18.4166 5.66315 18.5762 6.61825 18.6198C7.65113 18.6669 7.96088 18.6769 10.5767 18.6769C13.1925 18.6769 13.5022 18.6669 14.535 18.6198C15.4901 18.5762 16.0088 18.4166 16.354 18.2825C16.8112 18.1047 17.1376 17.8924 17.4804 17.5497C17.8232 17.2069 18.0355 16.8805 18.2132 16.4234C18.3473 16.0781 18.5069 15.5595 18.5505 14.6044C18.5976 13.5715 18.6076 13.2616 18.6076 10.646C18.6076 8.03031 18.5976 7.72056 18.5505 6.68758C18.5069 5.73248 18.3473 5.21379 18.2132 4.86858C18.0355 4.4114 17.8232 4.085 17.4804 3.74224C17.1376 3.39949 16.8112 3.18721 16.354 3.00951C16.0088 2.8754 15.4901 2.71583 14.535 2.67224Z" fill="white"/>
</svg>
