<svg width="25" height="25" viewBox="0 0 25 25" fill="none" xmlns="http://www.w3.org/2000/svg">
<mask id="mask0_68_168" style="mask-type:alpha" maskUnits="userSpaceOnUse" x="0" y="0" width="25" height="25">
<rect x="0.464844" y="0.557617" width="24" height="24" fill="#D9D9D9"/>
</mask>
<g mask="url(#mask0_68_168)">
<path d="M12.4648 22.5576C11.0982 22.5576 9.80651 22.2951 8.58984 21.7701C7.37318 21.2451 6.31068 20.5285 5.40234 19.6201C4.49401 18.7118 3.77734 17.6493 3.25234 16.4326C2.72734 15.216 2.46484 13.9243 2.46484 12.5576C2.46484 11.1743 2.72734 9.87845 3.25234 8.67012C3.77734 7.46178 4.49401 6.40345 5.40234 5.49512C6.31068 4.58678 7.37318 3.87012 8.58984 3.34512C9.80651 2.82012 11.0982 2.55762 12.4648 2.55762C13.8482 2.55762 15.144 2.82012 16.3523 3.34512C17.5607 3.87012 18.619 4.58678 19.5273 5.49512C20.4357 6.40345 21.1523 7.46178 21.6773 8.67012C22.2023 9.87845 22.4648 11.1743 22.4648 12.5576C22.4648 13.9243 22.2023 15.216 21.6773 16.4326C21.1523 17.6493 20.4357 18.7118 19.5273 19.6201C18.619 20.5285 17.5607 21.2451 16.3523 21.7701C15.144 22.2951 13.8482 22.5576 12.4648 22.5576ZM12.4648 16.5576C13.4648 16.5576 14.4398 16.7035 15.3898 16.9951C16.3398 17.2868 17.2315 17.7076 18.0648 18.2576C18.8315 17.491 19.4232 16.6201 19.8398 15.6451C20.2565 14.6701 20.4648 13.641 20.4648 12.5576C20.4648 10.3243 19.6898 8.43262 18.1398 6.88262C16.5898 5.33262 14.6982 4.55762 12.4648 4.55762C10.2315 4.55762 8.33984 5.33262 6.78984 6.88262C5.23984 8.43262 4.46484 10.3243 4.46484 12.5576C4.46484 13.641 4.66901 14.6743 5.07734 15.6576C5.48568 16.641 6.08151 17.5076 6.86484 18.2576C7.69818 17.7076 8.58984 17.2868 9.53984 16.9951C10.4898 16.7035 11.4648 16.5576 12.4648 16.5576ZM12.4648 18.5576C11.7815 18.5576 11.1148 18.641 10.4648 18.8076C9.81484 18.9743 9.19818 19.2243 8.61484 19.5576C9.19818 19.891 9.81484 20.141 10.4648 20.3076C11.1148 20.4743 11.7815 20.5576 12.4648 20.5576C13.1482 20.5576 13.8148 20.4743 14.4648 20.3076C15.1148 20.141 15.7315 19.891 16.3148 19.5576C15.7315 19.2243 15.1148 18.9743 14.4648 18.8076C13.8148 18.641 13.1482 18.5576 12.4648 18.5576ZM7.46484 11.5576C7.74818 11.5576 7.98568 11.4618 8.17734 11.2701C8.36901 11.0785 8.46484 10.841 8.46484 10.5576C8.46484 10.2743 8.36901 10.0368 8.17734 9.84512C7.98568 9.65345 7.74818 9.55762 7.46484 9.55762C7.18151 9.55762 6.94401 9.65345 6.75234 9.84512C6.56068 10.0368 6.46484 10.2743 6.46484 10.5576C6.46484 10.841 6.56068 11.0785 6.75234 11.2701C6.94401 11.4618 7.18151 11.5576 7.46484 11.5576ZM10.4648 8.55762C10.7482 8.55762 10.9857 8.46178 11.1773 8.27012C11.369 8.07845 11.4648 7.84095 11.4648 7.55762C11.4648 7.27428 11.369 7.03678 11.1773 6.84512C10.9857 6.65345 10.7482 6.55762 10.4648 6.55762C10.1815 6.55762 9.94401 6.65345 9.75234 6.84512C9.56068 7.03678 9.46484 7.27428 9.46484 7.55762C9.46484 7.84095 9.56068 8.07845 9.75234 8.27012C9.94401 8.46178 10.1815 8.55762 10.4648 8.55762ZM17.4648 11.5576C17.7482 11.5576 17.9857 11.4618 18.1773 11.2701C18.369 11.0785 18.4648 10.841 18.4648 10.5576C18.4648 10.2743 18.369 10.0368 18.1773 9.84512C17.9857 9.65345 17.7482 9.55762 17.4648 9.55762C17.1815 9.55762 16.944 9.65345 16.7523 9.84512C16.5607 10.0368 16.4648 10.2743 16.4648 10.5576C16.4648 10.841 16.5607 11.0785 16.7523 11.2701C16.944 11.4618 17.1815 11.5576 17.4648 11.5576ZM12.4648 14.5576C13.0148 14.5576 13.4857 14.3618 13.8773 13.9701C14.269 13.5785 14.4648 13.1076 14.4648 12.5576C14.4648 12.341 14.4315 12.1285 14.3648 11.9201C14.2982 11.7118 14.1982 11.5243 14.0648 11.3576L15.4148 7.95762C15.5315 7.69095 15.5357 7.42845 15.4273 7.17012C15.319 6.91178 15.1315 6.72428 14.8648 6.60762C14.6148 6.49095 14.3607 6.48678 14.1023 6.59512C13.844 6.70345 13.6648 6.89095 13.5648 7.15762L12.2148 10.5576C11.7148 10.641 11.2982 10.8701 10.9648 11.2451C10.6315 11.6201 10.4648 12.0576 10.4648 12.5576C10.4648 13.1076 10.6607 13.5785 11.0523 13.9701C11.444 14.3618 11.9148 14.5576 12.4648 14.5576Z" fill="white"/>
</g>
</svg>
