<svg width="25" height="25" viewBox="0 0 25 25" fill="none" xmlns="http://www.w3.org/2000/svg">
<mask id="mask0_65_144" style="mask-type:alpha" maskUnits="userSpaceOnUse" x="0" y="0" width="25" height="25">
<rect x="0.77832" y="0.345215" width="24" height="24" fill="#D9D9D9"/>
</mask>
<g mask="url(#mask0_65_144)">
<path d="M4.77813 20.3452V7.44521L2.82812 3.19521L4.62813 2.34521L6.97813 7.39522H18.5781L20.9281 2.34521L22.7281 3.19521L20.7781 7.44521V20.3452H4.77813ZM10.7781 13.3452H14.7781C15.0615 13.3452 15.299 13.2494 15.4906 13.0577C15.6823 12.866 15.7781 12.6285 15.7781 12.3452C15.7781 12.0619 15.6823 11.8244 15.4906 11.6327C15.299 11.441 15.0615 11.3452 14.7781 11.3452H10.7781C10.4948 11.3452 10.2573 11.441 10.0656 11.6327C9.87396 11.8244 9.77813 12.0619 9.77813 12.3452C9.77813 12.6285 9.87396 12.866 10.0656 13.0577C10.2573 13.2494 10.4948 13.3452 10.7781 13.3452ZM6.77813 18.3452H18.7781V9.39522H6.77813V18.3452Z" fill="white"/>
</g>
</svg>
