<svg width="21" height="16" viewBox="0 0 21 16" fill="none" xmlns="http://www.w3.org/2000/svg">
<path fill-rule="evenodd" clip-rule="evenodd" d="M18.2311 1.24774C19.0741 1.48921 19.738 2.2004 19.9633 3.10358C20.3726 4.74048 20.3726 8.15602 20.3726 8.15602C20.3726 8.15602 20.3726 11.5716 19.9633 13.2084C19.738 14.1115 19.0741 14.8228 18.2311 15.0643C16.7032 15.503 10.5767 15.503 10.5767 15.503C10.5767 15.503 4.45012 15.503 2.92225 15.0643C2.07931 14.8228 1.41534 14.1115 1.19004 13.2084C0.780762 11.5716 0.780762 8.15602 0.780762 8.15602C0.780762 8.15602 0.780762 4.74048 1.19004 3.10358C1.41534 2.2004 2.07931 1.48921 2.92225 1.24774C4.45012 0.809082 10.5767 0.809082 10.5767 0.809082C10.5767 0.809082 16.7032 0.809082 18.2311 1.24774ZM13.7076 8.15602L8.6175 5.00732V11.3047L13.7076 8.15602Z" fill="white"/>
</svg>
