<svg width="76" height="76" viewBox="0 0 76 76" fill="none" xmlns="http://www.w3.org/2000/svg">
<g id="typcn:arrow-up-outline">
<path id="Vector" d="M9.50059 38.0006C9.50059 32.7629 13.7629 28.5006 19.0006 28.5006L34.0866 28.5006C30.8439 24.8811 30.9864 18.9214 34.4508 15.4507C36.2331 13.6713 38.6487 12.6719 41.1673 12.6719C43.6858 12.6719 46.1014 13.6713 47.8838 15.4507L70.4336 38.0006L47.8838 60.5504C46.1014 62.3298 43.6858 63.3293 41.1673 63.3293C38.6487 63.3293 36.2331 62.3298 34.4508 60.5504C30.9833 57.0861 30.8408 51.1169 34.0866 47.5006H19.0006C13.7629 47.5006 9.50059 43.2382 9.50059 38.0006ZM49.3563 34.8339H19.0006C18.1852 34.8704 17.4154 35.2199 16.8513 35.8098C16.2872 36.3997 15.9724 37.1844 15.9724 38.0006C15.9724 38.8167 16.2872 39.6014 16.8513 40.1913C17.4154 40.7812 18.1852 41.1308 19.0006 41.1672H49.3563L38.9284 51.5951C38.352 52.1979 38.0303 52.9998 38.0303 53.8339C38.0303 54.668 38.352 55.4699 38.9284 56.0727C39.2223 56.3671 39.5712 56.6006 39.9554 56.7599C40.3396 56.9192 40.7514 57.0012 41.1673 57.0012C41.5832 57.0012 41.995 56.9192 42.3791 56.7599C42.7633 56.6006 43.1123 56.3671 43.4061 56.0727L61.4783 38.0006L43.4061 19.9284C43.1123 19.6341 42.7633 19.4006 42.3791 19.2412C41.995 19.0819 41.5832 18.9999 41.1673 18.9999C40.7514 18.9999 40.3396 19.0819 39.9554 19.2412C39.5712 19.4006 39.2223 19.6341 38.9284 19.9284C38.352 20.5312 38.0303 21.3332 38.0303 22.1672C38.0303 23.0013 38.352 23.8032 38.9284 24.4061L49.3563 34.8339Z" fill="white"/>
</g>
</svg>
