<svg width="30" height="30" viewBox="0 0 30 30" xmlns="http://www.w3.org/2000/svg">
<path strokeWidth="0" d="M17.9476 20.0601C15.8328 22.3037 12.0537 21.4131 11.1613 18.4608C10.2694 15.5099 12.9245 12.6914 15.93 13.3968C19.3443 10.4823 24.6485 5.97345 27.7208 3.47636C28.7923 2.60507 29.7104 3.58892 28.8758 4.62902C26.4396 7.6671 21.8782 12.9995 18.9322 16.4191C19.2159 17.6497 18.9333 19.0144 17.9476 20.0601ZM25.4065 14.9984C25.4065 14.1143 24.441 13.5588 23.6728 14.0008C22.9046 14.4428 22.9046 15.5539 23.6728 15.9959C24.441 16.4379 25.4065 15.8824 25.4065 14.9984ZM8.08253 10.3878C8.08253 9.50372 7.11705 8.9482 6.34883 9.39023C5.58061 9.83226 5.58061 10.9433 6.34883 11.3853C7.11705 11.8274 8.08253 11.2718 8.08253 10.3878ZM6.92765 14.9984C6.92765 14.1143 5.96216 13.5588 5.19394 14.0008C4.42566 14.4428 4.42566 15.5539 5.19394 15.9959C5.96222 16.4379 6.92765 15.8824 6.92765 14.9984ZM11.5474 6.92982C11.5474 6.04581 10.5819 5.49029 9.81365 5.93226C9.04543 6.37429 9.04543 7.48534 9.81365 7.92738C10.5819 8.36935 11.5474 7.81382 11.5474 6.92982ZM20.7868 6.92982C20.7868 6.04581 19.8213 5.49029 19.0531 5.93226C18.2848 6.37429 18.2848 7.48534 19.0531 7.92738C19.8213 8.36935 20.7868 7.81382 20.7868 6.92982ZM16.1671 5.77716C16.1671 4.89316 15.2016 4.33763 14.4334 4.77966C13.6651 5.22169 13.6651 6.33269 14.4334 6.77472C15.2016 7.21675 16.1671 6.66122 16.1671 5.77716ZM26.1342 11.9317C27.4976 16.9681 25.3995 22.7589 20.1021 25.3518C12.1493 29.2444 2.9005 23.0392 3.49423 14.2092C4.08767 5.38031 14.0803 0.488256 21.4392 5.42273L24.3095 3.23314C15.269 -3.90481 1.82159 1.43273 0.162326 12.8177C-1.49705 24.2027 9.86508 33.1737 20.565 28.9267C28.9597 25.5946 32.0513 16.0696 28.6282 8.67286L26.1342 11.9317Z" />
</svg>