<svg width="25" height="26" viewBox="0 0 25 26" fill="none" xmlns="http://www.w3.org/2000/svg">
<g clip-path="url(#clip0_476_1735)">
<path d="M17.2819 9.41985H15.6257V4.20669C15.6257 3.63325 15.1569 3.16406 14.584 3.16406H10.4173C9.8444 3.16406 9.37565 3.63325 9.37565 4.20669V9.41985H7.7194C6.79232 9.41985 6.32357 10.5459 6.97982 11.2027L11.7611 15.9884C12.1673 16.3951 12.8236 16.3951 13.2298 15.9884L18.0111 11.2027C18.6673 10.5459 18.209 9.41985 17.2819 9.41985ZM5.20898 19.8462C5.20898 20.4196 5.67773 20.8888 6.25065 20.8888H18.7507C19.3236 20.8888 19.7923 20.4196 19.7923 19.8462C19.7923 19.2727 19.3236 18.8035 18.7507 18.8035H6.25065C5.67773 18.8035 5.20898 19.2727 5.20898 19.8462Z" fill="#FFFFFF"/>
</g>
<defs>
<clipPath id="clip0_476_1735">
<rect width="25" height="25.0231" fill="white" transform="translate(0 0.0371094)"/>
</clipPath>
</defs>
</svg>
