<svg width="30" height="30" viewBox="0 0 30 30" fill="none" xmlns="http://www.w3.org/2000/svg">
<path d="M19.1667 24C18 24 17.0139 23.6375 16.2083 22.9125C15.4028 22.1875 15 21.3 15 20.25C15 19.2 15.4028 18.3125 16.2083 17.5875C17.0139 16.8625 18 16.5 19.1667 16.5C20.3333 16.5 21.3194 16.8625 22.125 17.5875C22.9306 18.3125 23.3333 19.2 23.3333 20.25C23.3333 21.3 22.9306 22.1875 22.125 22.9125C21.3194 23.6375 20.3333 24 19.1667 24ZM3.33333 30C2.41667 30 1.63222 29.7065 0.98 29.1195C0.327778 28.5325 0.00111111 27.826 0 27V6C0 5.175 0.326667 4.469 0.98 3.882C1.63333 3.295 2.41778 3.001 3.33333 3H5V0H8.33333V3H21.6667V0H25V3H26.6667C27.5833 3 28.3683 3.294 29.0217 3.882C29.675 4.47 30.0011 5.176 30 6V27C30 27.825 29.6739 28.5315 29.0217 29.1195C28.3694 29.7075 27.5844 30.001 26.6667 30H3.33333ZM3.33333 27H26.6667V12H3.33333V27Z" strokeWidth="0"/>
</svg>