<svg width="30" height="30" viewBox="0 0 30 30" fill="none" xmlns="http://www.w3.org/2000/svg">
<path strokeWidth="0" d="M27.073 12.0734C27.073 11.8332 27.0257 11.5953 26.9337 11.3734C26.8418 11.1514 26.7071 10.9498 26.5372 10.7799C26.3673 10.61 26.1657 10.4753 25.9438 10.3834C25.7218 10.2914 25.484 10.2441 25.2437 10.2441C25.0035 10.2441 24.7657 10.2914 24.5437 10.3834C24.3218 10.4753 24.1201 10.61 23.9503 10.7799C23.7804 10.9498 23.6457 11.1514 23.5537 11.3734C23.4618 11.5953 23.4145 11.8332 23.4145 12.0734H27.073ZM6.5855 12.0734C6.5855 11.5882 6.39278 11.123 6.04973 10.7799C5.70668 10.4369 5.24141 10.2441 4.75626 10.2441C4.27112 10.2441 3.80584 10.4369 3.4628 10.7799C3.11975 11.123 2.92702 11.5882 2.92702 12.0734H6.5855ZM26.8769 16.2938C27.22 16.6369 27.6853 16.8297 28.1705 16.8297C28.6557 16.8297 29.1211 16.6369 29.4642 16.2938C29.8073 15.9507 30 15.4854 30 15.0002C30 14.515 29.8073 14.0496 29.4642 13.7065L26.8769 16.2938ZM15 1.82959L16.2936 0.535945C16.1238 0.366032 15.9221 0.231248 15.7001 0.139289C15.4782 0.0473308 15.2403 0 15 0C14.7597 0 14.5218 0.0473308 14.2999 0.139289C14.0779 0.231248 13.8762 0.366032 13.7064 0.535945L15 1.82959ZM0.535842 13.7065C0.192748 14.0496 0 14.515 0 15.0002C0 15.4854 0.192748 15.9507 0.535842 16.2938C0.878936 16.6369 1.34427 16.8297 1.82948 16.8297C2.31469 16.8297 2.78002 16.6369 3.12312 16.2938L0.535842 13.7065ZM7.68305 30H22.317V26.3415H7.68305V30ZM27.073 25.244V12.0734H23.4145V25.244H27.073ZM6.5855 25.244V12.0734H2.92702V25.244H6.5855ZM29.4642 13.7065L16.2936 0.535945L13.7064 3.12323L26.8769 16.2938L29.4642 13.7065ZM13.7064 0.535945L0.535842 13.7065L3.12312 16.2938L16.2936 3.12323L13.7064 0.535945ZM22.317 30C23.5783 30 24.788 29.4989 25.68 28.607C26.5719 27.7151 27.073 26.5053 27.073 25.244H23.4145C23.4145 25.535 23.2989 25.8142 23.093 26.02C22.8872 26.2259 22.608 26.3415 22.317 26.3415V30ZM7.68305 26.3415C7.39196 26.3415 7.11279 26.2259 6.90696 26.02C6.70113 25.8142 6.5855 25.535 6.5855 25.244H2.92702C2.92702 26.5053 3.4281 27.7151 4.32003 28.607C5.21196 29.4989 6.42167 30 7.68305 30V26.3415Z" />
</svg>
