<svg width="30" height="30" viewBox="0 0 30 30" fill="none" xmlns="http://www.w3.org/2000/svg">
<path strokeWidth="0" d="M7.43048 10.7332C7.33798 12.1099 8.90382 13.3382 6.83715 13.1991C4.77048 13.0599 0.307149 11.0882 0.363816 10.2574C0.420482 9.42658 3.45382 7.95991 5.52048 8.09908C7.58715 8.23741 7.52382 9.35575 7.43048 10.7332ZM24.1988 24.1074C24.0378 24.0858 23.8739 24.1134 23.7288 24.1866C21.7913 24.3799 21.0413 22.6157 21.0413 22.6157C20.6755 22.3357 20.2238 20.9416 19.7172 21.6032L19.873 22.7716C20.0288 23.9399 22.0147 25.4582 22.0147 25.4582L21.0022 26.7824C20.9357 26.8694 20.887 26.9685 20.8588 27.0743C20.8307 27.1801 20.8236 27.2904 20.8381 27.3989C20.8526 27.5073 20.8883 27.6119 20.9432 27.7066C20.998 27.8013 21.071 27.8843 21.158 27.9507C21.2449 28.0172 21.3441 28.0659 21.4499 28.0941C21.5557 28.1222 21.6659 28.1293 21.7744 28.1148C21.8829 28.1003 21.9875 28.0646 22.0822 28.0097C22.1769 27.9549 22.2598 27.8819 22.3263 27.7949L22.8872 27.0616L22.8547 27.2691C22.82 27.4874 22.8734 27.7106 23.0033 27.8896C23.1332 28.0685 23.3288 28.1885 23.5472 28.2232C23.7655 28.2579 23.9887 28.2045 24.1677 28.0746C24.3466 27.9447 24.4666 27.7491 24.5013 27.5307L24.893 25.0616C24.9271 24.8431 24.8731 24.6199 24.743 24.4411C24.6129 24.2622 24.4172 24.1423 24.1988 24.1074ZM18.9672 24.6266C18.8103 24.5842 18.6444 24.5895 18.4905 24.6416C16.5447 24.5732 16.0372 22.7249 16.0372 22.7249C15.7122 22.3982 15.4513 20.9557 14.8605 21.5441L14.858 22.7224C14.8555 23.9007 16.6205 25.6716 16.6205 25.6716L15.4397 26.8482C15.3621 26.9255 15.3005 27.0172 15.2585 27.1182C15.2164 27.2192 15.1946 27.3275 15.1944 27.4369C15.1941 27.5463 15.2155 27.6547 15.2571 27.7559C15.2988 27.8571 15.3599 27.949 15.4372 28.0266C15.5144 28.1041 15.6061 28.1657 15.7071 28.2078C15.8081 28.2499 15.9164 28.2716 16.0258 28.2719C16.1352 28.2721 16.2436 28.2508 16.3448 28.2091C16.446 28.1675 16.538 28.1063 16.6155 28.0291L17.2697 27.3774L17.2088 27.5791C17.1452 27.7908 17.1682 28.0192 17.2729 28.2139C17.3776 28.4086 17.5554 28.5538 17.7672 28.6174C17.9789 28.6811 18.2072 28.658 18.402 28.5533C18.5967 28.4486 18.7418 28.2708 18.8055 28.0591L19.5238 25.6649C19.5559 25.5602 19.5669 25.4502 19.5562 25.3412C19.5455 25.2322 19.5134 25.1264 19.4617 25.0299C19.4099 24.9333 19.3396 24.848 19.2547 24.7788C19.1698 24.7096 19.0721 24.6579 18.9672 24.6266Z"/>
<path strokeWidth="0" d="M29.1744 5.60717C28.8552 5.4655 28.5427 5.55967 28.2994 5.8105C28.2544 5.85717 24.7786 11.0655 16.1894 9.9305C15.9061 9.893 18.8052 19.9038 18.8552 19.8988C18.9586 19.8872 21.4136 19.5922 23.9719 17.7713C26.3202 16.1005 29.2086 12.7788 29.6361 6.43967C29.6594 6.09133 29.4936 5.74967 29.1744 5.60717Z"/>
<path strokeWidth="0" d="M28.7311 17.5893C28.5611 17.3093 28.2394 17.1226 27.9153 17.1968C26.8378 17.4426 25.2511 17.6493 24.1403 17.5743C18.8428 17.2176 16.3394 14.1335 16.3136 14.1076C16.0844 13.8726 16.7019 23.7343 16.9936 23.7543C24.6553 24.271 28.5453 18.7318 28.7078 18.496C28.8928 18.2243 28.9019 17.8701 28.7311 17.5893Z"/>
<path strokeWidth="0" d="M20.4874 15.846C20.1783 20.4377 21.5841 24.0635 16.9924 23.7535C12.4008 23.4443 8.53828 19.6535 8.84744 15.061C9.15661 10.4685 20.7974 11.2543 20.4874 15.846Z"/>
<path strokeWidth="0" d="M19.3801 10.3437C19.086 14.7062 16.1118 18.0579 11.7501 17.7637C7.38764 17.4696 4.08931 13.6954 4.38348 9.33288C4.67764 4.97038 8.41014 2.29622 12.7726 2.59038C16.1068 2.81455 19.6393 6.49288 19.3801 10.3437Z"/>
<path strokeWidth="0" d="M8.89128 9.15755C9.81175 9.15755 10.5579 8.41136 10.5579 7.49089C10.5579 6.57041 9.81175 5.82422 8.89128 5.82422C7.9708 5.82422 7.22461 6.57041 7.22461 7.49089C7.22461 8.41136 7.9708 9.15755 8.89128 9.15755Z"/>
<path strokeWidth="0" d="M15.2862 13.6088C15.2862 13.6088 21.6446 18.3155 25.6087 9.89299C25.9387 9.19132 27.0129 10.5538 25.6912 13.3613C24.3696 16.1688 18.8787 18.728 15.6579 14.6413C14.9787 13.7788 15.2862 13.6088 15.2862 13.6088Z"/>
<path strokeWidth="0" d="M12.7734 2.5887C12.7734 2.5887 17.9784 2.80037 19.2718 2.1912C20.5651 1.58203 19.3851 4.63453 16.5534 5.3487C13.7218 6.06287 12.7734 2.5887 12.7734 2.5887Z"/>
<path strokeWidth="0" d="M14.5233 4.82273C14.5233 4.82273 18.2741 4.93607 19.5683 4.32773C20.8625 3.7194 19.6816 6.77107 16.85 7.48523C14.0175 8.1994 14.5233 4.82273 14.5233 4.82273Z"/>
</svg>
