<svg width="26" height="39" viewBox="0 0 26 39" fill="none" xmlns="http://www.w3.org/2000/svg">
<g filter="url(#filter0_d_1027_2428)">
<path d="M21.3117 30.3176C21.7524 29.8806 22 29.2879 22 28.6699C22 28.052 21.7524 27.4593 21.3117 27.0222L9.67462 15.4859L21.3117 3.94963C21.7399 3.51008 21.9769 2.92138 21.9715 2.31031C21.9662 1.69924 21.7189 1.11471 21.283 0.682604C20.8472 0.250498 20.2575 0.0053978 19.6411 8.7738e-05C19.0247 -0.00522232 18.4309 0.229685 17.9875 0.654217L4.68832 13.8382C4.24759 14.2753 4 14.8679 4 15.4859C4 16.1039 4.24759 16.6966 4.68832 17.1336L17.9875 30.3176C18.4283 30.7546 19.0262 31 19.6496 31C20.273 31 20.8708 30.7546 21.3117 30.3176Z" fill="#FFFFFF"/>
</g>
<defs>
<filter id="filter0_d_1027_2428" x="0" y="0" width="26" height="39" filterUnits="userSpaceOnUse" color-interpolation-filters="sRGB">
<feFlood flood-opacity="0" result="BackgroundImageFix"/>
<feColorMatrix in="SourceAlpha" type="matrix" values="0 0 0 0 0 0 0 0 0 0 0 0 0 0 0 0 0 0 127 0" result="hardAlpha"/>
<feOffset dy="4"/>
<feGaussianBlur stdDeviation="2"/>
<feComposite in2="hardAlpha" operator="out"/>
<feColorMatrix type="matrix" values="0 0 0 0 0 0 0 0 0 0 0 0 0 0 0 0 0 0 0.25 0"/>
<feBlend mode="normal" in2="BackgroundImageFix" result="effect1_dropShadow_1027_2428"/>
<feBlend mode="normal" in="SourceGraphic" in2="effect1_dropShadow_1027_2428" result="shape"/>
</filter>
</defs>
</svg>
