<svg width="25" height="25" viewBox="0 0 25 25" fill="none" xmlns="http://www.w3.org/2000/svg">
<mask id="mask0_1027_2663" style="mask-type:alpha" maskUnits="userSpaceOnUse" x="0" y="0" width="25" height="25">
<path d="M16.7969 24.2188C17.4441 24.2188 17.9688 23.6941 17.9688 23.0469C17.9688 22.3997 17.4441 21.875 16.7969 21.875C16.1497 21.875 15.625 22.3997 15.625 23.0469C15.625 23.6941 16.1497 24.2188 16.7969 24.2188Z" fill="black"/>
<path d="M19.1406 21.0938C19.7878 21.0938 20.3125 20.5691 20.3125 19.9219C20.3125 19.2747 19.7878 18.75 19.1406 18.75C18.4934 18.75 17.9688 19.2747 17.9688 19.9219C17.9688 20.5691 18.4934 21.0938 19.1406 21.0938Z" fill="black"/>
<path d="M5.85938 21.0938C6.50658 21.0938 7.03125 20.5691 7.03125 19.9219C7.03125 19.2747 6.50658 18.75 5.85938 18.75C5.21217 18.75 4.6875 19.2747 4.6875 19.9219C4.6875 20.5691 5.21217 21.0938 5.85938 21.0938Z" fill="black"/>
<path d="M3.51562 24.2188C4.16283 24.2188 4.6875 23.6941 4.6875 23.0469C4.6875 22.3997 4.16283 21.875 3.51562 21.875C2.86842 21.875 2.34375 22.3997 2.34375 23.0469C2.34375 23.6941 2.86842 24.2188 3.51562 24.2188Z" fill="black"/>
<path d="M8.20312 24.2188C8.85033 24.2188 9.375 23.6941 9.375 23.0469C9.375 22.3997 8.85033 21.875 8.20312 21.875C7.55592 21.875 7.03125 22.3997 7.03125 23.0469C7.03125 23.6941 7.55592 24.2188 8.20312 24.2188Z" fill="black"/>
<path d="M12.3973 23.8258L11.041 23.0508L13.4973 18.7508H8.81055L12.6035 12.1133L13.9598 12.8883L11.5027 17.1883H16.191L12.3973 23.8258Z" fill="black"/>
<path d="M18.3585 17.1875H17.9679V15.625H18.3585C19.2649 15.6228 20.1354 15.2705 20.7882 14.6416C21.4409 14.0127 21.8254 13.1559 21.8613 12.2502C21.8972 11.3445 21.5817 10.4599 20.9808 9.7813C20.3799 9.10271 19.54 8.68255 18.6366 8.60862L17.9999 8.55862L17.9225 7.92425C17.7595 6.60082 17.1181 5.38271 16.1192 4.49936C15.1203 3.61602 13.8329 3.12842 12.4995 3.12842C11.1661 3.12842 9.87865 3.61602 8.87978 4.49936C7.8809 5.38271 7.23952 6.60082 7.07645 7.92425L6.99832 8.55862L6.3616 8.60862C5.4582 8.68255 4.61831 9.10271 4.01739 9.7813C3.41648 10.4599 3.10102 11.3445 3.13692 12.2502C3.17282 13.1559 3.55731 14.0127 4.21005 14.6416C4.8628 15.2705 5.73331 15.6228 6.63973 15.625H7.03035V17.1875H6.63973C5.38098 17.1889 4.16665 16.7224 3.23246 15.8788C2.29828 15.0351 1.71089 13.8745 1.58433 12.6221C1.45777 11.3697 1.80106 10.115 2.54757 9.10152C3.29408 8.08803 4.39054 7.38807 5.6241 7.13753C5.957 5.5608 6.82175 4.14641 8.07342 3.13141C9.32509 2.11642 10.8876 1.5625 12.4991 1.5625C14.1106 1.5625 15.6731 2.11642 16.9248 3.13141C18.1765 4.14641 19.0412 5.5608 19.3741 7.13753C20.6077 7.38807 21.7041 8.08803 22.4506 9.10152C23.1971 10.115 23.5404 11.3697 23.4139 12.6221C23.2873 13.8745 22.6999 15.0351 21.7657 15.8788C20.8316 16.7224 19.6172 17.1889 18.3585 17.1875Z" fill="black"/>
</mask>
<g mask="url(#mask0_1027_2663)">
<rect y="9" width="25" height="16" fill="url(#paint0_linear_1027_2663)"/>
<rect y="-7" width="25" height="16" fill="white"/>
</g>
<defs>
<linearGradient id="paint0_linear_1027_2663" x1="12.5" y1="9" x2="12.5" y2="25" gradientUnits="userSpaceOnUse">
<stop stop-color="#902B6B"/>
<stop offset="1" stop-color="#C52440"/>
</linearGradient>
</defs>
</svg>
