<svg width="38" height="38" viewBox="0 0 38 38" fill="none" xmlns="http://www.w3.org/2000/svg">
<g>
<path d="M34.4521 6.09119L34.4521 6.09138C34.6516 6.03787 34.861 6.03245 35.063 6.07557C35.2603 6.11771 35.4452 6.20503 35.6031 6.33058C35.7762 6.44415 35.9198 6.59731 36.0222 6.77746C36.1268 6.9617 36.185 7.16864 36.1918 7.3804L36.192 7.3884H36.1919V29.0114C36.2037 29.2973 36.1212 29.5792 35.957 29.8137C35.7917 30.0499 35.5528 30.2247 35.2778 30.3109L35.2775 30.3109L24.7219 33.6043L24.7038 33.6099L24.685 33.6128C24.5615 33.6315 24.4361 33.6324 24.3124 33.6156C24.1103 33.6134 23.9113 33.5643 23.7312 33.472L23.7311 33.4719L13.7108 28.3312L3.66301 32.4569C3.663 32.4569 3.66298 32.4569 3.66297 32.4569C3.46519 32.5381 3.25048 32.5696 3.03772 32.5484C2.82494 32.5273 2.62061 32.4542 2.44269 32.3355L2.58137 32.1275L2.44269 32.3355C2.26477 32.2169 2.11871 32.0564 2.01735 31.8682C1.91598 31.6799 1.86241 31.4696 1.86134 31.2558L1.86134 31.2545L1.86134 9.63733V9.63674H2.11134C2.11029 9.42655 2.17201 9.22083 2.28861 9.04593C2.4052 8.87104 2.57136 8.73494 2.76579 8.65507L34.4521 6.09119ZM34.4521 6.09119L34.4424 6.09421L24.3956 9.23058L34.4521 6.09119ZM25.2458 13.5845V11.7936L33.528 9.16557V28.0518L25.2458 30.64V28.5628V28.3128H24.9958H23.3069H23.0569V28.5628V30.2647L14.6902 25.9718V24.3406V24.0906H14.4402H12.7513H12.5013V24.3406V25.9888L4.47245 29.2977V10.5008L12.5013 7.19183V9.29896V9.54896H12.7513H14.4402H14.6902V9.29896V7.23779L23.0569 11.5207V13.5845V13.8345H23.3069H24.9958H25.2458V13.5845Z" strokeWidth="0" stroke="currentColor" stroke-width="0.5"/>
<path d="M23.3066 15.8965H24.9955V19.9182H23.3066V15.8965Z" strokeWidth="0"/>
<path d="M23.3066 22.2305H24.9955V26.2521H23.3066V22.2305Z" strokeWidth="0"/>
<path d="M12.752 11.6738H14.4408V15.6955H12.752V11.6738Z" strokeWidth="0"/>
<path d="M12.752 18.082H14.4408V22.0404H12.752V18.082Z" strokeWidth="0"/>
</g>
</svg>
