<svg width="30" height="31" viewBox="0 0 30 31" fill="none" xmlns="http://www.w3.org/2000/svg">
<path d="M15 17.5117C13.9583 17.5117 13.0729 17.1471 12.3438 16.418C11.6146 15.6888 11.25 14.8034 11.25 13.7617V6.26172C11.25 5.22005 11.6146 4.33464 12.3438 3.60547C13.0729 2.8763 13.9583 2.51172 15 2.51172C16.0417 2.51172 16.9271 2.8763 17.6562 3.60547C18.3854 4.33464 18.75 5.22005 18.75 6.26172V13.7617C18.75 14.8034 18.3854 15.6888 17.6562 16.418C16.9271 17.1471 16.0417 17.5117 15 17.5117ZM13.75 26.2617V22.418C11.5833 22.1263 9.79167 21.1576 8.375 19.5117C6.95833 17.8659 6.25 15.9492 6.25 13.7617H8.75C8.75 15.4909 9.35958 16.9651 10.5788 18.1842C11.7979 19.4034 13.2717 20.0126 15 20.0117C16.7292 20.0117 18.2033 19.4021 19.4225 18.183C20.6417 16.9638 21.2508 15.4901 21.25 13.7617H23.75C23.75 15.9492 23.0417 17.8659 21.625 19.5117C20.2083 21.1576 18.4167 22.1263 16.25 22.418V26.2617H13.75Z" fill="white"/>
</svg>
