<svg width="37" height="40" viewBox="0 0 37 40" fill="none" xmlns="http://www.w3.org/2000/svg">
<g clip-path="url(#clip0_476_1874)">
<path d="M24.4651 26.7105C24.4651 24.908 19.7359 23.448 13.9021 23.448M24.4651 26.7105C24.4651 28.5131 19.7359 29.973 13.9021 29.973C8.06828 29.973 3.33908 28.5131 3.33908 26.7105M24.4651 26.7105V34.764C24.4651 36.622 19.7359 38.1293 13.9021 38.1293C8.06828 38.1293 3.33908 36.6237 3.33908 34.764V26.7105M24.4651 26.7105C30.2355 26.7105 35.0281 25.1005 35.0281 23.448V7.13555M13.9021 23.448C8.06828 23.448 3.33908 24.908 3.33908 26.7105M13.9021 23.448C7.23532 23.448 1.83008 21.838 1.83008 20.1855V12.0293M13.9021 8.7668C7.23532 8.7668 1.83008 10.2268 1.83008 12.0293M1.83008 12.0293C1.83008 13.8318 7.23532 15.2918 13.9021 15.2918C13.9021 16.9443 18.8109 18.5543 24.5813 18.5543C30.3502 18.5543 35.0281 16.9443 35.0281 15.2918M35.0281 7.13555C35.0281 5.33302 30.3502 3.87305 24.5813 3.87305C18.8109 3.87305 14.1345 5.33302 14.1345 7.13555M35.0281 7.13555C35.0281 8.93808 30.3502 10.398 24.5813 10.398C18.8124 10.398 14.1345 8.93808 14.1345 7.13555M14.1345 7.13555V23.7188" stroke="#292F33" stroke-width="3.5"/>
</g>
<defs>
<clipPath id="clip0_476_1874">
<rect width="36.216" height="39.15" fill="white" transform="translate(0.320312 0.611328)"/>
</clipPath>
</defs>
</svg>
