<svg width="43" height="47" viewBox="0 0 43 47" fill="none" xmlns="http://www.w3.org/2000/svg">
<g clip-path="url(#clip0_476_1885)">
<path fill-rule="evenodd" clip-rule="evenodd" d="M22.9085 25.0898C24.7761 25.0898 26.5673 25.8919 27.8879 27.3195C29.2085 28.7471 29.9505 30.6834 29.9505 32.7023V36.5086C29.9505 37.0133 29.765 37.4974 29.4348 37.8543C29.1047 38.2112 28.6569 38.4117 28.19 38.4117C27.7231 38.4117 27.2753 38.2112 26.9451 37.8543C26.6149 37.4974 26.4295 37.0133 26.4295 36.5086V32.7023C26.4295 31.6929 26.0585 30.7247 25.3982 30.0109C24.7379 29.2971 23.8423 28.8961 22.9085 28.8961H10.585C9.65114 28.8961 8.75556 29.2971 8.09525 30.0109C7.43493 30.7247 7.06397 31.6929 7.06397 32.7023V36.5086C7.06397 37.0133 6.87849 37.4974 6.54833 37.8543C6.21817 38.2112 5.77038 38.4117 5.30347 38.4117C4.83656 38.4117 4.38876 38.2112 4.05861 37.8543C3.72845 37.4974 3.54297 37.0133 3.54297 36.5086V32.7023C3.54297 30.6834 4.28489 28.7471 5.60552 27.3195C6.92615 25.8919 8.71731 25.0898 10.585 25.0898H22.9085ZM33.4715 25.0898C34.8722 25.0898 36.2156 25.6914 37.2061 26.7621C38.1965 27.8328 38.753 29.285 38.753 30.7992V34.6055C38.753 35.1102 38.5675 35.5943 38.2373 35.9512C37.9072 36.3081 37.4594 36.5086 36.9925 36.5086C36.5256 36.5086 36.0778 36.3081 35.7476 35.9512C35.4174 35.5943 35.232 35.1102 35.232 34.6055V30.7992C35.232 30.2945 35.0465 29.8104 34.7163 29.4535C34.3862 29.0966 33.9384 28.8961 33.4715 28.8961H30.9786C30.3683 27.3891 29.4083 26.0781 28.1917 25.0898H33.4715ZM16.7467 6.05859C18.8478 6.05859 20.8629 6.96088 22.3486 8.56695C23.8343 10.173 24.669 12.3513 24.669 14.6227C24.669 16.894 23.8343 19.0723 22.3486 20.6784C20.8629 22.2844 18.8478 23.1867 16.7467 23.1867C14.6456 23.1867 12.6306 22.2844 11.1448 20.6784C9.65913 19.0723 8.82447 16.894 8.82447 14.6227C8.82447 12.3513 9.65913 10.173 11.1448 8.56695C12.6306 6.96088 14.6456 6.05859 16.7467 6.05859ZM31.711 11.768C33.1117 11.768 34.4551 12.3695 35.4456 13.4402C36.436 14.5109 36.9925 15.9631 36.9925 17.4773C36.9925 18.9916 36.436 20.4438 35.4456 21.5145C34.4551 22.5852 33.1117 23.1867 31.711 23.1867C30.3102 23.1867 28.9669 22.5852 27.9764 21.5145C26.9859 20.4438 26.4295 18.9916 26.4295 17.4773C26.4295 15.9631 26.9859 14.5109 27.9764 13.4402C28.9669 12.3695 30.3102 11.768 31.711 11.768ZM16.7467 9.86484C15.5794 9.86484 14.46 10.3661 13.6346 11.2584C12.8092 12.1506 12.3455 13.3608 12.3455 14.6227C12.3455 15.8845 12.8092 17.0947 13.6346 17.9869C14.46 18.8792 15.5794 19.3805 16.7467 19.3805C17.914 19.3805 19.0335 18.8792 19.8589 17.9869C20.6843 17.0947 21.148 15.8845 21.148 14.6227C21.148 13.3608 20.6843 12.1506 19.8589 11.2584C19.0335 10.3661 17.914 9.86484 16.7467 9.86484ZM31.711 15.5742C31.2441 15.5742 30.7963 15.7747 30.4661 16.1316C30.1359 16.4885 29.9505 16.9726 29.9505 17.4773C29.9505 17.9821 30.1359 18.4661 30.4661 18.8231C30.7963 19.18 31.2441 19.3805 31.711 19.3805C32.1779 19.3805 32.6257 19.18 32.9558 18.8231C33.286 18.4661 33.4715 17.9821 33.4715 17.4773C33.4715 16.9726 33.286 16.4885 32.9558 16.1316C32.6257 15.7747 32.1779 15.5742 31.711 15.5742Z" fill="#292F33"/>
</g>
<defs>
<clipPath id="clip0_476_1885">
<rect width="42.252" height="45.675" fill="white" transform="translate(0.0214844 0.349609)"/>
</clipPath>
</defs>
</svg>
