<svg width="42" height="47" viewBox="0 0 42 47" fill="none" xmlns="http://www.w3.org/2000/svg">
<path d="M12.7387 30.8004C13.2189 30.8004 13.6218 30.6177 13.9472 30.2523C14.2726 29.8869 14.4348 29.4352 14.4337 28.8973C14.4337 28.358 14.271 27.9064 13.9455 27.5422C13.6201 27.1781 13.2178 26.9954 12.7387 26.9941C12.2584 26.9941 11.8561 27.1768 11.5318 27.5422C11.2075 27.9076 11.0448 28.3593 11.0437 28.8973C11.0437 29.4365 11.2064 29.8888 11.5318 30.2542C11.8573 30.6196 12.2596 30.8017 12.7387 30.8004ZM11.0437 25.091H14.4337V15.5754H11.0437V25.091ZM17.8237 28.8973H31.3837V25.091H17.8237V28.8973ZM17.8237 21.2848H31.3837V17.4785H17.8237V21.2848ZM7.65367 38.4129C6.72142 38.4129 5.92364 38.0405 5.26033 37.2958C4.59702 36.551 4.2648 35.6546 4.26367 34.6066V11.7691C4.26367 10.7224 4.59589 9.82668 5.26033 9.08193C5.92477 8.33717 6.72255 7.96416 7.65367 7.96289H34.7737C35.7059 7.96289 36.5043 8.3359 37.1687 9.08193C37.8331 9.82795 38.1648 10.7237 38.1637 11.7691V34.6066C38.1637 35.6534 37.832 36.5497 37.1687 37.2958C36.5054 38.0418 35.7071 38.4142 34.7737 38.4129H7.65367ZM7.65367 34.6066H34.7737V11.7691H7.65367V34.6066Z" fill="#292F33"/>
</svg>
