<svg width="40" height="44" viewBox="0 0 40 44" fill="none" xmlns="http://www.w3.org/2000/svg">
<g clip-path="url(#clip0_476_1857)">
<path fill-rule="evenodd" clip-rule="evenodd" d="M35.4777 9.12336C35.4777 7.15487 34.7587 5.26701 33.4787 3.87508C32.1988 2.48315 30.4628 1.70117 28.6527 1.70117H15.0027C13.1926 1.70117 11.4567 2.48315 10.1767 3.87508C8.8968 5.26701 8.17774 7.15487 8.17774 9.12336V23.8723C8.1771 25.458 8.64344 27.0022 9.50843 28.2787C10.3734 29.5552 11.5916 30.4969 12.9845 30.9658C15.8467 31.9422 18.8281 32.4427 21.8277 32.4502C24.8275 32.442 27.8089 31.9408 30.671 30.9637C32.0635 30.4949 33.2815 29.5535 34.1465 28.2774C35.0114 27.0014 35.478 25.4576 35.4777 23.8723V9.12336ZM10.1277 23.8723V9.12336C10.1277 7.7173 10.6414 6.36882 11.5556 5.37459C12.4698 4.38035 13.7098 3.8218 15.0027 3.8218H28.6527C29.9457 3.8218 31.1856 4.38035 32.0999 5.37459C33.0141 6.36882 33.5277 7.7173 33.5277 9.12336V23.8723C33.5282 25.0046 33.1952 26.1074 32.5776 27.019C31.9601 27.9307 31.0903 28.6033 30.0957 28.9385C27.42 29.8527 24.6325 30.3217 21.8277 30.3296C19.023 30.3217 16.2355 29.8527 13.5597 28.9385C12.5652 28.6033 11.6954 27.9307 11.0778 27.019C10.4603 26.1074 10.1273 25.0046 10.1277 23.8723Z" fill="#292F33"/>
<path fill-rule="evenodd" clip-rule="evenodd" d="M15.0031 27.149C15.7789 27.149 16.5229 26.8139 17.0714 26.2173C17.62 25.6208 17.9281 24.8117 17.9281 23.968C17.9281 23.1244 17.62 22.3153 17.0714 21.7188C16.5229 21.1222 15.7789 20.7871 15.0031 20.7871C14.2274 20.7871 13.4834 21.1222 12.9348 21.7188C12.3863 22.3153 12.0781 23.1244 12.0781 23.968C12.0781 24.8117 12.3863 25.6208 12.9348 26.2173C13.4834 26.8139 14.2274 27.149 15.0031 27.149ZM15.0031 22.9077C15.2617 22.9077 15.5097 23.0194 15.6926 23.2183C15.8754 23.4171 15.9781 23.6868 15.9781 23.968C15.9781 24.2493 15.8754 24.519 15.6926 24.7178C15.5097 24.9166 15.2617 25.0284 15.0031 25.0284C14.7445 25.0284 14.4965 24.9166 14.3137 24.7178C14.1308 24.519 14.0281 24.2493 14.0281 23.968C14.0281 23.6868 14.1308 23.4171 14.3137 23.2183C14.4965 23.0194 14.7445 22.9077 15.0031 22.9077ZM28.6531 27.149C29.4289 27.149 30.1729 26.8139 30.7214 26.2173C31.27 25.6208 31.5781 24.8117 31.5781 23.968C31.5781 23.1244 31.27 22.3153 30.7214 21.7188C30.1729 21.1222 29.4289 20.7871 28.6531 20.7871C27.8774 20.7871 27.1334 21.1222 26.5848 21.7188C26.0363 22.3153 25.7281 23.1244 25.7281 23.968C25.7281 24.8117 26.0363 25.6208 26.5848 26.2173C27.1334 26.8139 27.8774 27.149 28.6531 27.149ZM28.6531 22.9077C28.9117 22.9077 29.1597 23.0194 29.3426 23.2183C29.5254 23.4171 29.6281 23.6868 29.6281 23.968C29.6281 24.2493 29.5254 24.519 29.3426 24.7178C29.1597 24.9166 28.9117 25.0284 28.6531 25.0284C28.3945 25.0284 28.1465 24.9166 27.9637 24.7178C27.7808 24.519 27.6781 24.2493 27.6781 23.968C27.6781 23.6868 27.7808 23.4171 27.9637 23.2183C28.1465 23.0194 28.3945 22.9077 28.6531 22.9077Z" fill="#292F33"/>
<path d="M32.6152 39.1857C32.7107 39.4418 32.8944 39.6472 33.1271 39.7582C33.3598 39.8692 33.6232 39.877 33.8611 39.78C34.099 39.683 34.2927 39.4887 34.4009 39.2387C34.5091 38.9887 34.5233 38.7026 34.4404 38.4413L31.5154 29.9588C31.4183 29.7057 31.2347 29.5033 31.0032 29.3942C30.7718 29.2852 30.5104 29.2779 30.2741 29.374C30.0379 29.4701 29.845 29.662 29.7361 29.9095C29.6272 30.157 29.6108 30.4407 29.6902 30.7011L32.6152 39.1857ZM13.1152 29.9588C13.1565 29.8235 13.2225 29.6986 13.3092 29.5917C13.3959 29.4847 13.5015 29.3978 13.6198 29.3363C13.7381 29.2747 13.8665 29.2398 13.9975 29.2335C14.1285 29.2272 14.2593 29.2496 14.3821 29.2996C14.5049 29.3495 14.6172 29.4259 14.7123 29.5241C14.8073 29.6223 14.8832 29.7404 14.9353 29.8712C14.9874 30.0021 15.0147 30.143 15.0156 30.2856C15.0165 30.4282 14.9909 30.5695 14.9404 30.7011L12.0154 39.1836C11.9183 39.4367 11.7347 39.6391 11.5032 39.7482C11.2717 39.8572 11.0104 39.8645 10.7741 39.7684C10.5379 39.6723 10.345 39.4804 10.2361 39.2329C10.1272 38.9854 10.1108 38.7017 10.1902 38.4413L13.1152 29.9588Z" fill="#292F33"/>
<path fill-rule="evenodd" clip-rule="evenodd" d="M31.5781 10.1846C31.5781 9.05976 31.1672 7.98098 30.4358 7.18559C29.7045 6.3902 28.7125 5.94336 27.6781 5.94336H15.9781C14.9438 5.94336 13.9518 6.3902 13.2204 7.18559C12.489 7.98098 12.0781 9.05976 12.0781 10.1846V15.624C12.0782 16.5431 12.3528 17.4374 12.8607 18.1721C13.3685 18.9068 14.0821 19.4422 14.8939 19.6977C17.2027 20.4272 19.5154 20.7877 21.8281 20.7877C24.1408 20.7877 26.4535 20.4251 28.7623 19.6977C29.5742 19.4422 30.2878 18.9068 30.7956 18.1721C31.3034 17.4374 31.5781 16.5431 31.5781 15.624V10.1846ZM14.0281 15.624V10.1846C14.0281 9.62218 14.2336 9.0828 14.5993 8.6851C14.965 8.28741 15.461 8.06398 15.9781 8.06398H27.6781C28.1953 8.06398 28.6913 8.28741 29.057 8.6851C29.4227 9.0828 29.6281 9.62218 29.6281 10.1846V15.624C29.6279 16.0834 29.4905 16.5303 29.2366 16.8974C28.9827 17.2646 28.626 17.5321 28.2202 17.6598C26.144 18.3222 23.9919 18.6614 21.8281 18.6671C19.7007 18.6671 17.5693 18.3321 15.436 17.6619C15.0299 17.5341 14.673 17.2663 14.4191 16.8987C14.1652 16.5311 14.0279 16.0838 14.0281 15.624Z" fill="#292F33"/>
<path d="M12.5657 36.6913C12.3071 36.6913 12.0591 36.5796 11.8762 36.3808C11.6934 36.1819 11.5907 35.9122 11.5907 35.631C11.5907 35.3498 11.6934 35.0801 11.8762 34.8812C12.0591 34.6824 12.3071 34.5707 12.5657 34.5707H32.0657C32.3243 34.5707 32.5722 34.6824 32.7551 34.8812C32.9379 35.0801 33.0407 35.3498 33.0407 35.631C33.0407 35.9122 32.9379 36.1819 32.7551 36.3808C32.5722 36.5796 32.3243 36.6913 32.0657 36.6913H12.5657ZM4.57066 3.56291C4.38267 3.35819 4.27716 3.08064 4.27734 2.79131C4.27753 2.50199 4.38339 2.2246 4.57164 2.02016C4.75989 1.81572 5.01511 1.70097 5.28115 1.70117C5.5472 1.70137 5.80227 1.81649 5.99026 2.02122L39.0837 38.0103C39.2717 38.2148 39.3773 38.4921 39.3773 38.7812C39.3773 39.0703 39.2717 39.3476 39.0837 39.552C38.8957 39.7565 38.6408 39.8713 38.3749 39.8713C38.109 39.8713 37.8541 39.7565 37.6661 39.552L4.57066 3.56291Z" fill="#292F33"/>
</g>
<defs>
<clipPath id="clip0_476_1857">
<rect width="39" height="42.4125" fill="white" transform="translate(0.277344 0.613281)"/>
</clipPath>
</defs>
</svg>
