<svg width="26" height="24" viewBox="0 0 26 24" fill="none" xmlns="http://www.w3.org/2000/svg">
<path d="M3.8559 23.7947C3.79809 23.7373 3.75221 23.6691 3.7209 23.5939C3.68959 23.5188 3.67347 23.4381 3.67347 23.3567C3.67347 23.2753 3.68959 23.1946 3.7209 23.1195C3.75221 23.0443 3.79809 22.9761 3.8559 22.9187L7.0609 19.7137C7.14616 19.624 7.25639 19.5619 7.37732 19.5356C7.49825 19.5092 7.62431 19.5198 7.73917 19.5659C7.85403 19.612 7.95239 19.6915 8.02152 19.7942C8.09065 19.8969 8.12737 20.0179 8.1269 20.1417C8.12705 20.2253 8.1102 20.308 8.07736 20.3848C8.04452 20.4617 7.9964 20.531 7.9359 20.5887L4.7299 23.7937C4.67248 23.8514 4.60423 23.8972 4.52906 23.9284C4.4539 23.9596 4.3733 23.9757 4.2919 23.9757C4.21051 23.9757 4.12991 23.9596 4.05475 23.9284C3.97958 23.8972 3.91133 23.8514 3.8539 23.7937L3.8559 23.7947ZM10.3769 20.7617C10.3191 20.7043 10.2732 20.6361 10.2419 20.5609C10.2106 20.4858 10.1945 20.4051 10.1945 20.3237C10.1945 20.2423 10.2106 20.1616 10.2419 20.0865C10.2732 20.0113 10.3191 19.9431 10.3769 19.8857L12.7309 17.5317H6.1899L2.9599 20.7617C2.90245 20.8192 2.83423 20.8649 2.75914 20.896C2.68405 20.9272 2.60355 20.9432 2.52226 20.9433C2.44096 20.9433 2.36045 20.9273 2.28532 20.8963C2.21019 20.8652 2.14192 20.8196 2.0844 20.7622C2.02688 20.7047 1.98125 20.6365 1.95009 20.5614C1.91894 20.4863 1.90288 20.4058 1.90283 20.3245C1.90279 20.2433 1.91875 20.1627 1.94982 20.0876C1.98089 20.0125 2.02645 19.9442 2.0839 19.8867L4.4499 17.5197C3.85447 17.5177 3.26545 17.3966 2.71751 17.1636C2.16957 16.9305 1.67378 16.5902 1.25931 16.1627C0.844831 15.7352 0.52005 15.2292 0.304074 14.6743C0.0880973 14.1194 -0.0147121 13.5269 0.0016956 12.9317C0.0181032 12.3365 0.153396 11.7506 0.399614 11.2084C0.645831 10.6663 0.997999 10.1788 1.4354 9.77483C1.87279 9.37081 2.38658 9.05836 2.94652 8.85586C3.50647 8.65336 4.10126 8.5649 4.6959 8.5957H4.6899C4.7599 8.5957 4.8279 8.6007 4.8969 8.6047C5.9509 6.7467 7.9129 5.5117 10.1649 5.5057H10.1749C11.1219 5.5057 12.0179 5.7257 12.8139 6.1167L12.7789 6.1007C13.1927 5.65256 13.6958 5.29621 14.2559 5.0547L14.2839 5.0437C15.311 4.60965 16.4656 4.58688 17.509 4.98011C18.5524 5.37333 19.4048 6.15247 19.89 7.15644C20.3752 8.1604 20.456 9.31241 20.1157 10.3743C19.7755 11.4361 19.0402 12.3267 18.0619 12.8617L18.0389 12.8727C18.329 13.3314 18.4906 13.8595 18.507 14.402C18.5234 14.9445 18.394 15.4814 18.1322 15.9568C17.8704 16.4322 17.4858 16.8286 17.0186 17.1048C16.5514 17.3809 16.0186 17.5266 15.4759 17.5267H14.4829L11.2529 20.7567C11.1955 20.8145 11.1273 20.8604 11.0521 20.8917C10.977 20.923 10.8963 20.9391 10.8149 20.9391C10.7335 20.9391 10.6528 20.923 10.5777 20.8917C10.5025 20.8604 10.4343 20.8145 10.3769 20.7567V20.7617ZM1.4619 13.0637C1.4627 13.9197 1.80301 14.7404 2.40818 15.3457C3.01335 15.9511 3.83394 16.2916 4.6899 16.2927H15.4689C15.7587 16.2927 16.0441 16.2227 16.3011 16.0888C16.558 15.9548 16.7788 15.7608 16.9447 15.5233C17.1106 15.2857 17.2167 15.0116 17.2539 14.7242C17.2912 14.4369 17.2586 14.1448 17.1588 13.8728C17.059 13.6007 16.895 13.3568 16.6807 13.1617C16.4665 12.9667 16.2083 12.8262 15.9282 12.7523C15.648 12.6783 15.3541 12.6731 15.0715 12.7371C14.7889 12.8011 14.5259 12.9323 14.3049 13.1197L14.3079 13.1177C14.1827 13.2239 14.0205 13.2761 13.8568 13.2626C13.6932 13.2492 13.5416 13.1714 13.4354 13.0462C13.3292 12.921 13.277 12.7588 13.2905 12.5951C13.3039 12.4315 13.3817 12.2799 13.5069 12.1737L13.5079 12.1727C13.9155 11.8268 14.4076 11.5952 14.9339 11.5017L14.9519 11.4987C14.945 10.4779 14.6118 9.48608 14.0011 8.66814C13.3903 7.8502 12.534 7.24901 11.5572 6.95242C10.5805 6.65584 9.53444 6.6794 8.57202 7.01967C7.60959 7.35994 6.7812 7.99908 6.2079 8.8437L6.1969 8.8607C6.6889 9.0387 7.1139 9.2807 7.4889 9.5817L7.4799 9.5747C7.5478 9.62396 7.60499 9.68649 7.64802 9.75851C7.69104 9.83052 7.71901 9.91051 7.73022 9.99365C7.74143 10.0768 7.73566 10.1613 7.71324 10.2422C7.69083 10.323 7.65224 10.3984 7.59982 10.4639C7.5474 10.5294 7.48224 10.5836 7.40827 10.6232C7.33431 10.6628 7.25308 10.6869 7.16951 10.6942C7.08594 10.7014 7.00176 10.6917 6.92207 10.6655C6.84238 10.6393 6.76884 10.5972 6.7059 10.5417L6.7069 10.5427C6.13976 10.0835 5.43165 9.83379 4.7019 9.8357H4.6929C3.8365 9.83623 3.01529 10.1765 2.40953 10.7819C1.80377 11.3873 1.46296 12.2083 1.4619 13.0647V13.0637ZM14.7639 6.1867C14.4159 6.3387 14.1169 6.5367 13.8589 6.7797L13.8609 6.7777C14.5867 7.33973 15.1741 8.06049 15.5782 8.88472C15.9822 9.70895 16.1922 10.6148 16.1919 11.5327V11.5437C16.5429 11.6307 16.8519 11.7687 17.1289 11.9497L17.1179 11.9427C17.6957 11.7119 18.1912 11.3133 18.5405 10.7985C18.8898 10.2836 19.077 9.67589 19.0779 9.0537C19.0779 8.25967 18.7742 7.49571 18.2291 6.91839C17.6839 6.34108 16.9386 5.99414 16.1459 5.9487H16.1379C16.0812 5.94603 16.0246 5.9447 15.9679 5.9447H15.9599C15.5279 5.9447 15.1169 6.0337 14.7439 6.1937L14.7639 6.1867ZM21.1629 15.7737L19.6839 14.1267C19.6295 14.0662 19.5876 13.9956 19.5605 13.919C19.5334 13.8423 19.5217 13.761 19.526 13.6798C19.5304 13.5986 19.5506 13.5191 19.5857 13.4457C19.6208 13.3723 19.6699 13.3066 19.7304 13.2522C19.7909 13.1978 19.8615 13.1559 19.9381 13.1288C20.0148 13.1017 20.0961 13.09 20.1773 13.0943C20.2585 13.0986 20.338 13.1189 20.4114 13.154C20.4848 13.189 20.5505 13.2382 20.6049 13.2987L20.6059 13.2997L22.0849 14.9477C22.1393 15.0082 22.1812 15.0788 22.2083 15.1554C22.2354 15.2321 22.2471 15.3134 22.2428 15.3946C22.2385 15.4758 22.2182 15.5553 22.1831 15.6287C22.1481 15.7021 22.0989 15.7678 22.0384 15.8222C21.9779 15.8766 21.9073 15.9185 21.8307 15.9456C21.754 15.9727 21.6727 15.9844 21.5915 15.9801C21.5103 15.9757 21.4308 15.9555 21.3574 15.9204C21.284 15.8853 21.2183 15.8362 21.1639 15.7757L21.1629 15.7737ZM24.3929 10.1317L22.1809 10.0117C22.024 9.99739 21.8785 9.92389 21.7738 9.80614C21.6691 9.68839 21.6132 9.53521 21.6174 9.37772C21.6216 9.22024 21.6856 9.07026 21.7964 8.95825C21.9072 8.84625 22.0565 8.78062 22.2139 8.7747L22.2489 8.7757H22.2469L24.4579 8.8957C24.6148 8.91 24.7604 8.9835 24.865 9.10125C24.9697 9.219 25.0256 9.37218 25.0214 9.52967C25.0172 9.68715 24.9532 9.83713 24.8424 9.94914C24.7316 10.0611 24.5823 10.1268 24.4249 10.1327L24.3929 10.1317ZM20.1639 5.2917C20.1094 5.23134 20.0673 5.16079 20.0401 5.08412C20.013 5.00744 20.0012 4.92615 20.0056 4.84492C20.01 4.76369 20.0304 4.68413 20.0656 4.61081C20.1008 4.53749 20.1502 4.47186 20.2109 4.4177H20.2119L21.8599 2.9387C21.9204 2.88433 21.991 2.84241 22.0676 2.81532C22.1443 2.78823 22.2256 2.77651 22.3068 2.78083C22.388 2.78515 22.4675 2.80542 22.5409 2.84048C22.6143 2.87555 22.68 2.92472 22.7344 2.9852C22.7888 3.04567 22.8307 3.11626 22.8578 3.19294C22.8849 3.26961 22.8966 3.35087 22.8923 3.43208C22.888 3.51328 22.8677 3.59284 22.8326 3.66621C22.7976 3.73958 22.7484 3.80533 22.6879 3.8597L22.6869 3.8607L21.0389 5.3397C20.9785 5.39423 20.908 5.43629 20.8313 5.46346C20.7546 5.49063 20.6734 5.50237 20.5921 5.498C20.5109 5.49363 20.4313 5.47324 20.358 5.43801C20.2847 5.40278 20.2191 5.35339 20.1649 5.2927L20.1639 5.2917ZM11.3299 4.8127L9.8509 3.1637C9.79654 3.10309 9.75464 3.03237 9.7276 2.95557C9.70057 2.87878 9.68892 2.79741 9.69333 2.71611C9.69774 2.63481 9.71812 2.55518 9.75331 2.48176C9.7885 2.40834 9.8378 2.34256 9.8984 2.2882C9.95901 2.23383 10.0297 2.19193 10.1065 2.16489C10.1833 2.13786 10.2647 2.12621 10.346 2.13062C10.4273 2.13503 10.5069 2.15542 10.5803 2.1906C10.6538 2.22579 10.7195 2.27509 10.7739 2.3357L12.2519 3.9857C12.3618 4.10836 12.4185 4.26967 12.4095 4.43414C12.4005 4.59861 12.3266 4.75276 12.2039 4.8627C12.0812 4.97263 11.9199 5.02933 11.7555 5.02033C11.591 5.01133 11.4368 4.93736 11.3269 4.8147L11.3259 4.8137L11.3299 4.8127ZM16.2739 3.4277C16.1925 3.42322 16.1128 3.40275 16.0394 3.36746C15.9659 3.33216 15.9001 3.28272 15.8458 3.22198C15.7915 3.16124 15.7497 3.09038 15.7227 3.01346C15.6958 2.93654 15.6843 2.85506 15.6889 2.7737V2.7757L15.8089 0.563696C15.8232 0.406806 15.8967 0.261245 16.0145 0.156586C16.1322 0.0519273 16.2854 -0.00398058 16.4429 0.000220724C16.6004 0.00442203 16.7503 0.0684174 16.8623 0.179206C16.9744 0.289994 17.04 0.439266 17.0459 0.596696L17.0449 0.631696V0.629696L16.9249 2.8417C16.9162 2.99982 16.8474 3.14863 16.7324 3.2576C16.6175 3.36656 16.4653 3.42742 16.3069 3.4277H16.2739Z" fill="#595758"/>
</svg>
