<svg width="37" height="41" viewBox="0 0 37 41" fill="none" xmlns="http://www.w3.org/2000/svg">
<path d="M18.8379 32.5996C19.4046 32.5996 19.8799 32.4076 20.2639 32.0236C20.6479 31.6396 20.8392 31.1649 20.8379 30.5996C20.8379 30.0329 20.6459 29.5583 20.2619 29.1756C19.8779 28.7929 19.4032 28.6009 18.8379 28.5996C18.2712 28.5996 17.7966 28.7916 17.4139 29.1756C17.0312 29.5596 16.8392 30.0343 16.8379 30.5996C16.8379 31.1663 17.0299 31.6416 17.4139 32.0256C17.7979 32.4096 18.2726 32.6009 18.8379 32.5996ZM16.8379 24.5996H20.8379V12.5996H16.8379V24.5996ZM4.83789 40.5996C3.73789 40.5996 2.79656 40.2083 2.01389 39.4256C1.23122 38.6429 0.839224 37.7009 0.837891 36.5996V8.59961C0.837891 7.49961 1.22989 6.55828 2.01389 5.77561C2.79789 4.99294 3.73922 4.60094 4.83789 4.59961H13.2379C13.6712 3.39961 14.3966 2.43294 15.4139 1.69961C16.4312 0.966276 17.5726 0.599609 18.8379 0.599609C20.1046 0.599609 21.2466 0.966276 22.2639 1.69961C23.2812 2.43294 24.0059 3.39961 24.4379 4.59961H32.8379C33.9379 4.59961 34.8799 4.99161 35.6639 5.77561C36.4479 6.55961 36.8392 7.50094 36.8379 8.59961V36.5996C36.8379 37.6996 36.4466 38.6416 35.6639 39.4256C34.8812 40.2096 33.9392 40.6009 32.8379 40.5996H4.83789ZM4.83789 36.5996H32.8379V8.59961H4.83789V36.5996ZM18.8379 7.09961C19.2712 7.09961 19.6299 6.95761 19.9139 6.67361C20.1979 6.38961 20.3392 6.03161 20.3379 5.59961C20.3379 5.16628 20.1959 4.80828 19.9119 4.52561C19.6279 4.24294 19.2699 4.10094 18.8379 4.09961C18.4046 4.09961 18.0466 4.24161 17.7639 4.52561C17.4812 4.80961 17.3392 5.16761 17.3379 5.59961C17.3379 6.03294 17.4799 6.39161 17.7639 6.67561C18.0479 6.95961 18.4059 7.10094 18.8379 7.09961Z" fill="#292F33"/>
</svg>
