<svg width="26" height="39" viewBox="0 0 26 39" fill="none" xmlns="http://www.w3.org/2000/svg">
<g filter="url(#filter0_d_1027_2427)">
<path d="M4.68832 0.682358C4.24759 1.1194 4 1.71208 4 2.33007C4 2.94805 4.24759 3.54073 4.68832 3.97778L16.3254 15.5141L4.68832 27.0504C4.26008 27.4899 4.02312 28.0786 4.02847 28.6897C4.03383 29.3008 4.28107 29.8853 4.71696 30.3174C5.15283 30.7495 5.74248 30.9946 6.35888 30.9999C6.97528 31.0052 7.56913 30.7703 8.01252 30.3458L21.3117 17.1618C21.7524 16.7247 22 16.1321 22 15.5141C22 14.8961 21.7524 14.3034 21.3117 13.8664L8.01252 0.682358C7.57166 0.245444 6.9738 0 6.35042 0C5.72704 0 5.12918 0.245444 4.68832 0.682358Z" fill="#FFFFFF"/>
</g>
<defs>
<filter id="filter0_d_1027_2427" x="0" y="0" width="26" height="39" filterUnits="userSpaceOnUse" color-interpolation-filters="sRGB">
<feFlood flood-opacity="0" result="BackgroundImageFix"/>
<feColorMatrix in="SourceAlpha" type="matrix" values="0 0 0 0 0 0 0 0 0 0 0 0 0 0 0 0 0 0 127 0" result="hardAlpha"/>
<feOffset dy="4"/>
<feGaussianBlur stdDeviation="2"/>
<feComposite in2="hardAlpha" operator="out"/>
<feColorMatrix type="matrix" values="0 0 0 0 0 0 0 0 0 0 0 0 0 0 0 0 0 0 0.25 0"/>
<feBlend mode="normal" in2="BackgroundImageFix" result="effect1_dropShadow_1027_2427"/>
<feBlend mode="normal" in="SourceGraphic" in2="effect1_dropShadow_1027_2427" result="shape"/>
</filter>
</defs>
</svg>
