<svg width="31" height="28" viewBox="0 0 31 28" fill="none" xmlns="http://www.w3.org/2000/svg">
<path d="M27.7628 27.4661L17.2289 17.9206C16.3929 18.5267 15.4315 19.0065 14.3446 19.36C13.2578 19.7136 12.1013 19.8903 10.8751 19.8903C7.83758 19.8903 5.26709 18.9368 3.16366 17.0297C1.06022 15.1227 0.00795063 12.7934 0.00683594 10.0418C0.00683594 7.28932 1.05911 4.96003 3.16366 3.05397C5.26821 1.1479 7.8387 0.194369 10.8751 0.193359C13.9127 0.193359 16.4837 1.14689 18.5883 3.05397C20.6928 4.96104 21.7445 7.29033 21.7434 10.0418C21.7434 11.153 21.5484 12.2009 21.1582 13.1858C20.7681 14.1706 20.2386 15.0418 19.5698 15.7994L30.1037 25.3449L27.7628 27.4661ZM10.8751 16.86C12.9652 16.86 14.742 16.1974 16.2056 14.8721C17.6692 13.5469 18.4005 11.9368 18.3993 10.0418C18.3993 8.1479 17.6681 6.53831 16.2056 5.21306C14.7431 3.8878 12.9663 3.22467 10.8751 3.22366C8.78508 3.22366 7.00881 3.88679 5.54632 5.21306C4.08384 6.53932 3.35204 8.14891 3.35093 10.0418C3.35093 11.9358 4.08273 13.5459 5.54632 14.8721C7.00992 16.1984 8.78619 16.861 10.8751 16.86Z" fill="black" fill-opacity="0.6"/>
</svg>
