<svg width="20" height="20" viewBox="0 0 20 20" fill="none" xmlns="http://www.w3.org/2000/svg">
<path d="M19.2473 6.89464C18.535 5.17877 17.3599 3.6946 15.8532 2.60776C14.3464 1.52092 12.5672 0.874186 10.7143 0.739732V0H9.28572V0.739732C6.76204 0.916017 4.39946 2.04403 2.67569 3.89568C0.951911 5.74733 -0.00443674 8.18446 1.54756e-05 10.7143V11.7196L0.54689 11.2192C1.02132 10.748 1.64892 10.4624 2.31587 10.4142C2.98282 10.3661 3.64494 10.5585 4.18215 10.9567L4.19197 10.9643C4.23394 10.9942 4.27546 11.025 4.31563 11.058C4.37784 11.1083 4.43736 11.1621 4.4942 11.2192L5.00001 11.7246L5.50492 11.2192C5.97964 10.7487 6.60731 10.4639 7.27405 10.4165C7.94078 10.3692 8.60239 10.5624 9.13884 10.9612L9.28572 11.0714V17.8571C9.28572 18.0466 9.21046 18.2283 9.07651 18.3622C8.94255 18.4962 8.76087 18.5714 8.57143 18.5714C8.38199 18.5714 8.20031 18.4962 8.06636 18.3622C7.9324 18.2283 7.85715 18.0466 7.85715 17.8571V17.1429H6.42858V17.8571C6.42858 18.4255 6.65434 18.9705 7.0562 19.3724C7.45807 19.7742 8.00311 20 8.57143 20C9.13975 20 9.6848 19.7742 10.0867 19.3724C10.4885 18.9705 10.7143 18.4255 10.7143 17.8571V11.0714L10.8612 10.9612C11.3976 10.5624 12.0592 10.3692 12.726 10.4165C13.3927 10.4639 14.0204 10.7487 14.4951 11.2192L15 11.7246L15.5049 11.2192C15.5629 11.1615 15.6232 11.1073 15.6857 11.0567C15.7201 11.029 15.7549 11.0027 15.7902 10.9768L15.8018 10.9674C16.9013 10.1429 18.4803 10.2473 19.454 11.2192L20 11.7192V10.7143C20.0022 9.40401 19.7464 8.10613 19.2473 6.89464Z" fill="#595758"/>
</svg>
