<svg width="25" height="25" viewBox="0 0 25 25" fill="none" xmlns="http://www.w3.org/2000/svg">
<mask id="mask0_1075_1012" style="mask-type:alpha" maskUnits="userSpaceOnUse" x="0" y="0" width="25" height="25">
<path d="M24.0591 8.6183C23.1688 6.47346 21.6999 4.61824 19.8165 3.2597C17.933 1.90115 15.7091 1.09273 13.3929 0.924665V0H11.6071V0.924665C8.45255 1.14502 5.49933 2.55503 3.34461 4.8696C1.18989 7.18416 -0.00554592 10.2306 1.93445e-05 13.3929V14.6496L0.683612 14.024C1.27665 13.435 2.06115 13.078 2.89484 13.0178C3.72852 12.9576 4.55618 13.1981 5.22769 13.6959L5.23997 13.7054C5.29242 13.7427 5.34432 13.7813 5.39454 13.8225C5.4723 13.8854 5.5467 13.9526 5.61776 14.024L6.25001 14.6557L6.88115 14.024C7.47455 13.4358 8.25914 13.0798 9.09256 13.0207C9.92597 12.9615 10.753 13.203 11.4236 13.7015L11.6071 13.8393V22.3214C11.6071 22.5582 11.5131 22.7853 11.3456 22.9528C11.1782 23.1202 10.9511 23.2143 10.7143 23.2143C10.4775 23.2143 10.2504 23.1202 10.0829 22.9528C9.9155 22.7853 9.82143 22.5582 9.82143 22.3214V21.4286H8.03572V22.3214C8.03572 23.0318 8.31793 23.7131 8.82026 24.2155C9.32259 24.7178 10.0039 25 10.7143 25C11.4247 25 12.106 24.7178 12.6083 24.2155C13.1107 23.7131 13.3929 23.0318 13.3929 22.3214V13.8393L13.5765 13.7015C14.247 13.203 15.074 12.9615 15.9074 13.0207C16.7409 13.0798 17.5254 13.4358 18.1189 14.024L18.75 14.6557L19.3811 14.024C19.4537 13.9518 19.529 13.8841 19.6071 13.8209C19.6501 13.7863 19.6936 13.7533 19.7377 13.721L19.7522 13.7093C21.1267 12.6786 23.1004 12.8092 24.3175 14.024L25 14.649V13.3929C25.0027 11.755 24.683 10.1327 24.0591 8.6183Z" fill="white"/>
</mask>
<g mask="url(#mask0_1075_1012)">
<rect y="6" width="25" height="19" fill="url(#paint0_linear_1075_1012)"/>
<rect y="-13" width="25" height="19" fill="white"/>
</g>
<defs>
<linearGradient id="paint0_linear_1075_1012" x1="12.5" y1="6" x2="12.5" y2="25" gradientUnits="userSpaceOnUse">
<stop stop-color="#902B6B"/>
<stop offset="1" stop-color="#C52440"/>
</linearGradient>
</defs>
</svg>
