<svg width="34" height="34" viewBox="0 0 34 34" fill="none" xmlns="http://www.w3.org/2000/svg">
<path d="M2 28.2502C2 26.261 2.79018 24.3533 4.1967 22.9468C5.60322 21.5402 7.51088 20.75 9.5 20.75H24.5C26.4891 20.75 28.3968 21.5402 29.8033 22.9468C31.2098 24.3533 32 26.261 32 28.2502C32 29.2448 31.6049 30.1986 30.9016 30.9019C30.1984 31.6052 29.2446 32.0003 28.25 32.0003H5.75C4.75544 32.0003 3.80161 31.6052 3.09835 30.9019C2.39509 30.1986 2 29.2448 2 28.2502Z" stroke-width="3" stroke-linejoin="round"/>
<path d="M17 13.2503C20.1066 13.2503 22.625 10.7318 22.625 7.62515C22.625 4.51847 20.1066 2 17 2C13.8934 2 11.375 4.51847 11.375 7.62515C11.375 10.7318 13.8934 13.2503 17 13.2503Z" stroke-width="3"/>
</svg>
