<svg width="34" height="34" viewBox="0 0 34 34" fill="none" xmlns="http://www.w3.org/2000/svg">
<g clip-path="url(#clip0_933_2011)">
<path d="M14.877 23.3759C14.877 22.8123 15.1008 22.2718 15.4994 21.8733C15.8979 21.4747 16.4384 21.2509 17.002 21.2509C17.5655 21.2509 18.106 21.4747 18.5046 21.8733C18.9031 22.2718 19.127 22.8123 19.127 23.3759C19.127 23.9394 18.9031 24.4799 18.5046 24.8785C18.106 25.277 17.5655 25.5009 17.002 25.5009C16.4384 25.5009 15.8979 25.277 15.4994 24.8785C15.1008 24.4799 14.877 23.9394 14.877 23.3759ZM15.0873 10.6152C15.059 10.3471 15.0874 10.0761 15.1706 9.81969C15.2538 9.56328 15.39 9.32723 15.5704 9.12686C15.7507 8.92648 15.9712 8.76626 16.2174 8.65658C16.4637 8.54691 16.7303 8.49023 16.9998 8.49023C17.2694 8.49023 17.536 8.54691 17.7822 8.65658C18.0285 8.76626 18.2489 8.92648 18.4293 9.12686C18.6096 9.32723 18.7458 9.56328 18.829 9.81969C18.9122 10.0761 18.9406 10.3471 18.9123 10.6152L18.1686 18.0676C18.1384 18.3565 18.0022 18.624 17.7864 18.8185C17.5705 19.0129 17.2903 19.1205 16.9998 19.1205C16.7093 19.1205 16.4291 19.0129 16.2133 18.8185C15.9975 18.624 15.8613 18.3565 15.8311 18.0676L15.0873 10.6152Z" fill="black"/>
<path d="M21.8304 5.34037L19.8732 3.33437L21.3926 1.85112L22.7144 3.20474L24.6056 3.18137C25.4243 3.17168 26.2366 3.32578 26.9948 3.63461C27.7531 3.94343 28.4419 4.40075 29.0208 4.97967C29.5997 5.55859 30.0571 6.24742 30.3659 7.00565C30.6747 7.76388 30.8288 8.57621 30.8191 9.39487L30.7979 11.2861L32.1494 12.6079C32.7347 13.1799 33.1998 13.8631 33.5174 14.6174C33.8349 15.3717 33.9985 16.1818 33.9985 17.0002C33.9985 17.8187 33.8349 18.6288 33.5174 19.3831C33.1998 20.1374 32.7347 20.8206 32.1494 21.3926L30.7957 22.7144L30.8191 24.6056C30.8288 25.4243 30.6747 26.2366 30.3659 26.9948C30.0571 27.7531 29.5997 28.4419 29.0208 29.0208C28.4419 29.5997 27.7531 30.0571 26.9948 30.3659C26.2366 30.6747 25.4243 30.8288 24.6056 30.8191L22.7144 30.7979L21.3926 32.1494C20.8206 32.7347 20.1374 33.1998 19.3831 33.5174C18.6288 33.8349 17.8187 33.9985 17.0002 33.9985C16.1818 33.9985 15.3717 33.8349 14.6174 33.5174C13.8631 33.1998 13.1799 32.7347 12.6079 32.1494L11.2861 30.7957L9.39487 30.8191C8.57621 30.8288 7.76388 30.6747 7.00565 30.3659C6.24742 30.0571 5.55859 29.5997 4.97967 29.0208C4.40075 28.4419 3.94343 27.7531 3.63461 26.9948C3.32578 26.2366 3.17168 25.4243 3.18137 24.6056L3.20262 22.7144L1.85112 21.3926C1.26577 20.8206 0.800647 20.1374 0.483092 19.3831C0.165537 18.6288 0.00195312 17.8187 0.00195312 17.0002C0.00195312 16.1818 0.165537 15.3717 0.483092 14.6174C0.800647 13.8631 1.26577 13.1799 1.85112 12.6079L3.20474 11.2861L3.18137 9.39487C3.17168 8.57621 3.32578 7.76388 3.63461 7.00565C3.94343 6.24742 4.40075 5.55859 4.97967 4.97967C5.55859 4.40075 6.24742 3.94343 7.00565 3.63461C7.76388 3.32578 8.57621 3.17168 9.39487 3.18137L11.2861 3.20262L12.6079 1.85112C13.1799 1.26577 13.8631 0.800647 14.6174 0.483092C15.3717 0.165537 16.1818 0.00195312 17.0002 0.00195312C17.8187 0.00195312 18.6288 0.165537 19.3831 0.483092C20.1374 0.800647 20.8206 1.26577 21.3926 1.85112L19.8732 3.33437C19.4992 2.95141 19.0523 2.64711 18.5589 2.43935C18.0655 2.23159 17.5356 2.12456 17.0002 2.12456C16.4649 2.12456 15.935 2.23159 15.4416 2.43935C14.9482 2.64711 14.5013 2.95141 14.1272 3.33437L12.1722 5.34037L9.36724 5.30637C8.83212 5.30039 8.3012 5.40141 7.80567 5.6035C7.31014 5.80559 6.86 6.10468 6.48168 6.48319C6.10337 6.8617 5.80452 7.312 5.60268 7.80764C5.40085 8.30328 5.30011 8.83425 5.30637 9.36937L5.34037 12.1701L3.33437 14.1272C2.95141 14.5013 2.64711 14.9482 2.43935 15.4416C2.23159 15.935 2.12456 16.4649 2.12456 17.0002C2.12456 17.5356 2.23159 18.0655 2.43935 18.5589C2.64711 19.0523 2.95141 19.4992 3.33437 19.8732L5.34037 21.8282L5.30637 24.6332C5.30039 25.1684 5.40141 25.6993 5.6035 26.1948C5.80559 26.6903 6.10468 27.1405 6.48319 27.5188C6.8617 27.8971 7.312 28.196 7.80764 28.3978C8.30328 28.5996 8.83425 28.7004 9.36937 28.6941L12.1701 28.6601L14.1272 30.6661C14.5013 31.0491 14.9482 31.3534 15.4416 31.5611C15.935 31.7689 16.4649 31.8759 17.0002 31.8759C17.5356 31.8759 18.0655 31.7689 18.5589 31.5611C19.0523 31.3534 19.4992 31.0491 19.8732 30.6661L21.8282 28.6601L24.6332 28.6941C25.1684 28.7001 25.6993 28.5991 26.1948 28.397C26.6903 28.1949 27.1405 27.8958 27.5188 27.5173C27.8971 27.1388 28.196 26.6885 28.3978 26.1928C28.5996 25.6972 28.7004 25.1662 28.6941 24.6311L28.6601 21.8304L30.6661 19.8732C31.0491 19.4992 31.3534 19.0523 31.5611 18.5589C31.7689 18.0655 31.8759 17.5356 31.8759 17.0002C31.8759 16.4649 31.7689 15.935 31.5611 15.4416C31.3534 14.9482 31.0491 14.5013 30.6661 14.1272L28.6601 12.1722L28.6941 9.36724C28.7001 8.83212 28.5991 8.3012 28.397 7.80567C28.1949 7.31014 27.8958 6.86 27.5173 6.48168C27.1388 6.10337 26.6885 5.80452 26.1928 5.60268C25.6972 5.40085 25.1662 5.30011 24.6311 5.30637L21.8304 5.34037Z" fill="black"/>
</g>
<defs>
<clipPath id="clip0_933_2011">
<rect width="34" height="34" fill="white"/>
</clipPath>
</defs>
</svg>
