<svg width="440" height="206" viewBox="0 0 440 206" fill="none" xmlns="http://www.w3.org/2000/svg">
<g filter="url(#filter0_i_987_2327)">
<circle cx="217.5" cy="96.75" r="85.5" fill="#161212" fill-opacity="0.05"/>
</g>
<path d="M163 96.25C163 101.05 164.333 108.917 165 112.25C137.8 114.65 111.667 128.583 102 135.25C101.2 170.05 31.1667 173.75 1 171.25V158.25C26.5 158.917 87 155.25 87 135.25C87 115.25 137.667 100.917 163 96.25Z" fill="url(#paint0_linear_987_2327)"/>
<g filter="url(#filter1_d_987_2327)">
<path d="M267.499 101.25C267.499 106.05 262.166 116.917 261.499 120.25C288.699 122.65 310.999 151.25 315.999 161.75C327.999 196.25 405.333 203.25 435.5 200.75V185.25C410 185.917 346.154 179.78 337.499 161.75C325.499 136.75 292.833 105.917 267.499 101.25Z" fill="url(#paint1_linear_987_2327)"/>
</g>
<g filter="url(#filter2_d_987_2327)">
<path d="M260.5 100.75C260.5 95.95 261.167 84.0833 260.5 80.75C287.7 78.35 317 64.25 317 48.873C317.8 14.073 407.833 -2.25 438 0.25V12.25C412.5 11.5833 333 27.25 335 48.873C336.842 68.788 285.833 96.0833 260.5 100.75Z" fill="url(#paint2_linear_987_2327)"/>
</g>
<g filter="url(#filter3_d_987_2327)">
<path d="M260 97.75C260 102.55 260.667 107.917 260 111.25C287.2 113.65 323.5 127.25 334.5 135.25C365 147.25 404 144.25 434 145.25V131.25C408.5 131.917 359.082 130.932 342.5 119.75C329.5 110.983 285.333 102.417 260 97.75Z" fill="url(#paint3_linear_987_2327)"/>
</g>
<g filter="url(#filter4_d_987_2327)">
<path d="M268 101.25C268 96.45 266.667 90.5833 266 87.25C293.2 84.85 323 77.25 334 69.25C364.5 57.25 406.5 59.25 436.5 58.25V71.25C406.5 71.25 356.582 72.5676 340 83.75C327 92.517 293.333 96.5833 268 101.25Z" fill="url(#paint4_linear_987_2327)"/>
</g>
<path d="M164.5 96.873C164.5 92.073 165.833 84.2064 166.5 80.873C139.3 78.473 113.167 64.5397 103.5 57.873C102.7 23.073 30.1667 19.75 0 22.25V34.25C25.5 33.5833 88.5 37.873 88.5 57.873C88.5 77.873 139.167 92.2064 164.5 96.873Z" fill="url(#paint5_linear_987_2327)"/>
<rect y="89.25" width="177" height="15" fill="url(#paint6_linear_987_2327)"/>
<g filter="url(#filter5_d_987_2327)">
<circle cx="218" cy="97.25" r="55" fill="#595758"/>
</g>
<defs>
<filter id="filter0_i_987_2327" x="132" y="11.25" width="171" height="175" filterUnits="userSpaceOnUse" color-interpolation-filters="sRGB">
<feFlood flood-opacity="0" result="BackgroundImageFix"/>
<feBlend mode="normal" in="SourceGraphic" in2="BackgroundImageFix" result="shape"/>
<feColorMatrix in="SourceAlpha" type="matrix" values="0 0 0 0 0 0 0 0 0 0 0 0 0 0 0 0 0 0 127 0" result="hardAlpha"/>
<feMorphology radius="30" operator="erode" in="SourceAlpha" result="effect1_innerShadow_987_2327"/>
<feOffset dy="4"/>
<feGaussianBlur stdDeviation="30"/>
<feComposite in2="hardAlpha" operator="arithmetic" k2="-1" k3="1"/>
<feColorMatrix type="matrix" values="0 0 0 0 0.741148 0 0 0 0 0.741148 0 0 0 0 0.741148 0 0 0 0.25 0"/>
<feBlend mode="normal" in2="shape" result="effect1_innerShadow_987_2327"/>
</filter>
<filter id="filter1_d_987_2327" x="259.499" y="101.25" width="178.001" height="103.959" filterUnits="userSpaceOnUse" color-interpolation-filters="sRGB">
<feFlood flood-opacity="0" result="BackgroundImageFix"/>
<feColorMatrix in="SourceAlpha" type="matrix" values="0 0 0 0 0 0 0 0 0 0 0 0 0 0 0 0 0 0 127 0" result="hardAlpha"/>
<feOffset dy="2"/>
<feGaussianBlur stdDeviation="1"/>
<feComposite in2="hardAlpha" operator="out"/>
<feColorMatrix type="matrix" values="0 0 0 0 0 0 0 0 0 0 0 0 0 0 0 0 0 0 0.25 0"/>
<feBlend mode="normal" in2="BackgroundImageFix" result="effect1_dropShadow_987_2327"/>
<feBlend mode="normal" in="SourceGraphic" in2="effect1_dropShadow_987_2327" result="shape"/>
</filter>
<filter id="filter2_d_987_2327" x="258.5" y="0" width="181.5" height="104.75" filterUnits="userSpaceOnUse" color-interpolation-filters="sRGB">
<feFlood flood-opacity="0" result="BackgroundImageFix"/>
<feColorMatrix in="SourceAlpha" type="matrix" values="0 0 0 0 0 0 0 0 0 0 0 0 0 0 0 0 0 0 127 0" result="hardAlpha"/>
<feOffset dy="2"/>
<feGaussianBlur stdDeviation="1"/>
<feComposite in2="hardAlpha" operator="out"/>
<feColorMatrix type="matrix" values="0 0 0 0 0 0 0 0 0 0 0 0 0 0 0 0 0 0 0.25 0"/>
<feBlend mode="normal" in2="BackgroundImageFix" result="effect1_dropShadow_987_2327"/>
<feBlend mode="normal" in="SourceGraphic" in2="effect1_dropShadow_987_2327" result="shape"/>
</filter>
<filter id="filter3_d_987_2327" x="258" y="97.75" width="178" height="51.5" filterUnits="userSpaceOnUse" color-interpolation-filters="sRGB">
<feFlood flood-opacity="0" result="BackgroundImageFix"/>
<feColorMatrix in="SourceAlpha" type="matrix" values="0 0 0 0 0 0 0 0 0 0 0 0 0 0 0 0 0 0 127 0" result="hardAlpha"/>
<feOffset dy="2"/>
<feGaussianBlur stdDeviation="1"/>
<feComposite in2="hardAlpha" operator="out"/>
<feColorMatrix type="matrix" values="0 0 0 0 0 0 0 0 0 0 0 0 0 0 0 0 0 0 0.25 0"/>
<feBlend mode="normal" in2="BackgroundImageFix" result="effect1_dropShadow_987_2327"/>
<feBlend mode="normal" in="SourceGraphic" in2="effect1_dropShadow_987_2327" result="shape"/>
</filter>
<filter id="filter4_d_987_2327" x="264" y="58.25" width="174.5" height="47" filterUnits="userSpaceOnUse" color-interpolation-filters="sRGB">
<feFlood flood-opacity="0" result="BackgroundImageFix"/>
<feColorMatrix in="SourceAlpha" type="matrix" values="0 0 0 0 0 0 0 0 0 0 0 0 0 0 0 0 0 0 127 0" result="hardAlpha"/>
<feOffset dy="2"/>
<feGaussianBlur stdDeviation="1"/>
<feComposite in2="hardAlpha" operator="out"/>
<feColorMatrix type="matrix" values="0 0 0 0 0 0 0 0 0 0 0 0 0 0 0 0 0 0 0.25 0"/>
<feBlend mode="normal" in2="BackgroundImageFix" result="effect1_dropShadow_987_2327"/>
<feBlend mode="normal" in="SourceGraphic" in2="effect1_dropShadow_987_2327" result="shape"/>
</filter>
<filter id="filter5_d_987_2327" x="153" y="34.25" width="130" height="130" filterUnits="userSpaceOnUse" color-interpolation-filters="sRGB">
<feFlood flood-opacity="0" result="BackgroundImageFix"/>
<feColorMatrix in="SourceAlpha" type="matrix" values="0 0 0 0 0 0 0 0 0 0 0 0 0 0 0 0 0 0 127 0" result="hardAlpha"/>
<feOffset dy="2"/>
<feGaussianBlur stdDeviation="5"/>
<feComposite in2="hardAlpha" operator="out"/>
<feColorMatrix type="matrix" values="0 0 0 0 0 0 0 0 0 0 0 0 0 0 0 0 0 0 0.2 0"/>
<feBlend mode="normal" in2="BackgroundImageFix" result="effect1_dropShadow_987_2327"/>
<feBlend mode="normal" in="SourceGraphic" in2="effect1_dropShadow_987_2327" result="shape"/>
</filter>
<linearGradient id="paint0_linear_987_2327" x1="171.5" y1="127.25" x2="1.00001" y2="126.25" gradientUnits="userSpaceOnUse">
<stop stop-color="#595758"/>
<stop offset="1"/>
</linearGradient>
<linearGradient id="paint1_linear_987_2327" x1="332.5" y1="190.75" x2="233.5" y2="192.25" gradientUnits="userSpaceOnUse">
<stop stop-color="#FFD600"/>
<stop offset="1" stop-color="#595758"/>
</linearGradient>
<linearGradient id="paint2_linear_987_2327" x1="338" y1="88.25" x2="235.5" y2="88.25" gradientUnits="userSpaceOnUse">
<stop stop-color="#FF0000"/>
<stop offset="1" stop-color="#595758"/>
</linearGradient>
<linearGradient id="paint3_linear_987_2327" x1="332" y1="136.25" x2="250" y2="138.25" gradientUnits="userSpaceOnUse">
<stop stop-color="#FF7A00"/>
<stop offset="1" stop-color="#595758"/>
</linearGradient>
<linearGradient id="paint4_linear_987_2327" x1="335.5" y1="104.25" x2="259" y2="104.25" gradientUnits="userSpaceOnUse">
<stop stop-color="#FF9900"/>
<stop offset="1" stop-color="#595758"/>
</linearGradient>
<linearGradient id="paint5_linear_987_2327" x1="166" y1="85.75" x2="8.5209e-06" y2="86.75" gradientUnits="userSpaceOnUse">
<stop stop-color="#595758"/>
<stop offset="0.995"/>
</linearGradient>
<linearGradient id="paint6_linear_987_2327" x1="173.5" y1="104.25" x2="-2.50354e-06" y2="104.25" gradientUnits="userSpaceOnUse">
<stop stop-color="#595758"/>
<stop offset="1"/>
</linearGradient>
</defs>
</svg>
