<svg width="703" height="713" viewBox="0 0 703 713" fill="none" xmlns="http://www.w3.org/2000/svg">
<g filter="url(#filter0_d_156_7)">
<g filter="url(#filter1_i_156_7)">
<path d="M28.7457 173.79C22.5206 173.79 12.5843 178.18 8.39428 180.375L6 195.339L28.7457 191.149V200.127H14.9786V203.719C27.9077 203.719 30.7409 209.305 30.5414 212.099L26.95 221.676H8.39428C20.8446 225.028 22.3609 236.241 21.5628 241.429L41.3157 233.647C43.2311 244.661 59.2728 248.612 67.0542 249.21L102.37 275.547L119.728 269.562L123.918 275.547L119.728 290.512H134.094H150.854C153.248 290.512 163.424 299.49 156.241 302.483C150.495 304.877 141.477 299.091 137.686 295.899L135.291 306.074L148.46 313.257L138.883 329.419C146.066 337.08 151.453 351.765 153.248 358.15C181.501 374.431 185.771 384.487 184.374 387.48L190.36 400.05V411.423H186.768V418.007H180.184V420.401L205.324 441.95L213.704 476.667L220.288 482.653L213.704 485.646L205.324 476.667L199.937 456.316L184.374 441.95L175.994 499.413C174.996 499.612 174.438 499.892 180.184 499.413C185.93 498.934 187.766 506.795 187.966 510.786H177.79C166.776 590.276 147.662 610.148 139.481 610.148V614.937C145.866 614.538 158.636 614.937 158.636 619.725C158.636 625.711 154.446 631.098 154.446 634.69C154.446 637.563 158.436 638.281 160.431 638.281V631.098H165.22L166.417 638.281L181.381 646.063H195.747L203.528 658.034H218.493V650.253L241.238 616.134L235.253 600.571H226.274C222.922 600.571 225.675 591.393 227.471 586.804V573.037L242.435 564.657C243.393 569.446 246.027 570.643 247.224 570.643V564.657L281.343 561.664L290.92 554.481L295.708 544.904H290.92V534.728H301.694V523.954L326.235 498.814V485.646L315.461 473.076V461.104L320.848 456.316C320.369 448.654 311.87 443.546 307.68 441.95H293.913C293.913 435.725 285.533 429.779 281.343 427.584L287.927 420.401H293.913V411.423C296.506 410.625 301.694 408.669 301.694 407.233C301.694 405.796 296.506 401.846 293.913 400.05V386.283L315.461 373.713V365.931L301.694 358.15C303.131 353.84 294.711 335.604 290.321 327.024L268.773 329.419V322.236L254.407 309.067L265.78 275.547H273.561L293.913 258.189V251.006H298.103V239.034L304.687 233.647L277.153 218.085V210.902L273.561 207.31L257.4 213.895L249.02 198.93L241.837 201.923L213.704 203.719L193.353 196.536C190.958 202.761 183.975 202.721 180.783 201.923L175.396 188.755H159.234V180.375L139.481 191.149L134.094 180.375L114.341 195.339C114.341 183.846 101.173 171.396 94.5885 166.607H70.6456C70.6456 170.398 70.0471 177.98 67.6528 177.98C65.2585 177.98 63.0637 175.187 62.2657 173.79H58.0757C58.0757 175.985 57.2377 180.375 53.8857 180.375C50.5337 180.375 47.3014 174.389 46.1042 171.396C42.9119 172.194 34.9708 173.79 28.7457 173.79Z" fill="#3887C8" stroke="white" stroke-width="2"/>
<path d="M296.307 95.976C309.715 97.8914 327.831 86.7979 335.214 81.0117C348.622 82.4483 353.57 97.1731 354.368 104.356L351.375 108.546V125.905H355.565L351.375 133.087L356.164 145.059H350.178L345.988 155.833L334.017 157.629V159.424L343.594 177.98V192.944L352.572 200.127V209.704H353.769H360.354V216.289H363.347V225.267H365.741L375.917 220.479C381.104 220.678 391.479 222.035 391.479 225.866C391.479 229.697 394.273 235.443 395.669 237.837C402.852 238.795 417.817 234.645 424.401 231.852V218.084H441.161L448.942 225.866V230.654L452.534 236.042H457.921L466.899 253.999H481.265C489.246 252.003 506.166 247.893 509.996 247.414C513.827 246.936 519.973 252.003 522.566 254.597V268.364L539.925 280.934C543.317 279.737 550.58 277.822 552.495 279.737C554.41 281.653 549.303 286.521 546.509 288.716L552.495 294.701V310.264L540.524 328.221L550.699 353.96C550.5 359.148 549.502 369.523 547.108 369.523C544.714 369.523 541.721 366.729 540.524 365.333H524.961C523.165 373.713 518.855 390.473 515.982 390.473C513.109 390.473 512.79 384.886 512.989 382.093H496.828C496.828 385.684 492.638 392.268 490.244 392.867C488.328 393.346 475.479 391.47 469.294 390.473L468.695 383.888L460.315 389.276L461.512 408.43H455.526V423.993L471.688 448.534L466.899 462.301H480.068L483.061 459.907H493.835V467.09L499.222 470.681V476.068H493.835V485.047H490.842L489.645 490.434H485.455L483.061 497.018H475.279L466.899 506.595L455.526 497.018L447.146 501.807L439.964 490.434L428.591 492.23V498.215H423.204L414.824 515.574L424.401 532.933V551.488H428.591V556.875H435.774L430.387 564.657C433.978 564.856 441.281 566.213 441.759 570.044C442.238 573.875 439.565 575.232 438.168 575.431H430.387V581.417H419.612V592.191C420.57 596.98 404.049 596.581 395.669 595.783L396.867 612.542C366.938 610.747 371.727 616.134 370.529 616.732C369.332 617.331 357.361 613.141 351.375 613.141C346.587 613.141 341.399 621.122 339.404 625.112L340.002 634.091C340.481 638.88 350.178 641.274 354.967 641.872V658.632C354.967 661.506 350.577 663.421 348.382 664.02C348.382 667.372 351.974 671.402 353.769 672.998H364.544V675.392C357.361 675.392 348.781 680.979 345.389 683.772L334.615 677.787L325.038 680.78L321.447 672.4H309.475L304.088 664.618L281.941 659.231L279.547 672.998L262.188 667.611C261.39 669.407 259.315 672.998 257.4 672.998C255.484 672.998 253.409 669.407 252.611 667.611H244.83V669.407H236.45C235.971 664.618 226.673 659.431 222.084 657.435V650.252L243.632 620.922V612.542L238.245 598.775C232.978 598.775 229.267 596.381 228.07 595.184C228.07 591.353 230.863 588.001 232.26 586.804L232.858 573.037L242.435 567.65C242.435 571.959 247.224 573.037 249.618 573.037V567.051L261.59 565.854C267.575 565.455 280.265 564.657 283.138 564.657C286.011 564.657 288.725 559.868 289.722 557.474H295.708L295.11 551.488L301.095 543.108H296.307V537.123H306.482L303.49 525.151L329.228 499.413V483.251L319.052 471.28V461.703L323.841 455.717C323.841 448.534 313.466 441.95 308.278 439.556H295.11C294.631 434.767 289.722 430.777 287.328 429.38L290.321 423.394H295.708L299.3 411.423C301.295 411.223 305.285 410.106 305.285 407.233C305.285 404.36 301.295 402.045 299.3 401.247V388.078L321.447 374.311V368.326H318.454V364.136C318.454 359.347 309.675 357.352 305.285 356.953C305.764 349.77 296.307 330.815 291.518 322.236H283.737V327.024H271.765V318.046C267.456 318.046 262.388 312.06 260.392 309.067C260.871 307.152 266.977 288.317 269.97 279.139H278.35L291.518 270.759V266.569L302.891 254.597V239.034L308.877 233.647C310.313 231.253 302.292 226.265 298.102 224.07L281.342 215.69V208.507L274.16 201.923L258.597 208.507C256.681 201.324 249.818 195.538 246.625 193.543L240.64 198.93H214.302L193.352 193.543L183.775 198.93L178.987 187.557H188.564L177.79 176.184V141.467C171.202 134.41 166.387 112.905 164.707 102.504C164.65 102.33 164.621 102.149 164.621 101.962C164.649 102.139 164.678 102.32 164.707 102.504C166.107 106.78 184.15 107.134 193.352 106.75V117.525C193.352 122.313 202.132 127.501 206.521 129.496L251.414 139.672L286.131 126.503L269.371 122.313L273.561 106.75L296.307 95.976Z" fill="#A6A6A6" stroke="#FDFDFD" stroke-width="2"/>
<path d="M347.187 158.826L353.172 146.256C351.736 153.439 364.944 150.845 371.728 148.65L378.312 153.439L383.699 150.446L398.065 160.023H418.416L421.409 157.629H428.592V166.009C428.592 168.403 438.169 174.189 442.958 176.783L436.972 188.156H440.564V197.733H445.951L438.169 205.514V216.289H422.008V228.26C422.008 234.844 398.664 235.443 397.466 235.443C396.269 235.443 395.671 236.041 395.671 228.26C395.671 222.035 382.901 218.084 376.516 216.887L366.341 221.676V213.894H363.946V207.31H356.165V200.127L347.187 191.747C347.386 186.759 347.426 176.783 345.989 176.783C344.553 176.783 339.804 165.211 337.609 159.424L347.187 158.826Z" fill="#39B3BB" stroke="white" stroke-width="2"/>
<path d="M485.456 108.547V91.188C485.456 95.4977 501.019 90.5894 508.801 87.5965V76.8223H515.385C515.385 80.1743 512.991 85.4018 511.794 87.5965L515.385 91.188V103.159H524.364L530.948 110.941H536.934C537.412 117.645 546.311 124.508 550.701 127.102L564.468 121.715L578.235 130.095L583.622 127.102H598.586C603.375 127.102 611.356 143.862 614.748 152.242H622.529V146.256H625.522L636.895 152.242L645.873 154.038L653.056 149.249C656.408 154.038 663.631 156.432 666.823 157.031C675.203 157.031 697.949 157.031 697.949 162.418C699.146 167.206 679.393 189.354 678.196 189.354C676.999 189.354 675.203 212.698 675.802 214.494C676.401 216.289 665.626 230.655 666.823 231.852C667.781 232.81 669.218 240.631 669.816 244.422C668.021 251.405 664.429 266.09 664.429 268.963C664.429 271.837 667.222 275.747 668.619 277.343L660.239 287.519H650.063V282.731H644.676V274.949H639.289V265.372L616.543 247.415H610.558C610.558 248.612 609.959 251.006 607.565 251.006C605.171 251.006 604.572 248.612 604.572 247.415H592.601C592.601 246.218 589.009 242.028 587.812 242.028C586.615 242.028 572.848 246.816 572.848 252.204C572.848 256.513 566.064 257.591 562.672 257.591V267.766H549.504C548.705 271.158 545.912 277.343 543.518 277.343C541.124 277.343 538.929 271.158 538.131 267.766C537.732 269.163 535.497 271.956 534.539 271.956C533.582 271.956 531.746 269.163 530.948 267.766H525.561V261.781H529.152C530.11 259.386 526.359 253.201 524.364 250.408H519.575V246.816L514.188 243.225H504.012C504.491 244.183 502.615 246.417 501.618 247.415H484.259L477.675 250.408H469.894V245.021H465.704L460.915 231.852H454.331V225.268L442.359 215.092V207.311L450.739 198.931V194.741H445.951V186.959L442.359 183.966L457.922 167.206V162.418H453.134V156.432C456.486 156.432 458.92 154.437 459.718 153.439C462.591 152.003 458.521 150.446 456.127 149.848V141.468L468.696 136.081L475.281 138.475V116.328L485.456 108.547Z" fill="#7C27D0" stroke="white" stroke-width="2"/>
<path d="M368.137 7.98571L350.18 16.9643L350.778 50.4842C350.778 52.8785 347.187 61.2585 346.588 61.8571C346.109 62.3359 351.177 67.6433 353.771 70.2371H345.99C341.68 70.2371 340.203 75.8237 340.004 78.6171C352.933 86.2788 357.362 96.1751 357.961 100.166V105.553C356.524 107.468 354.968 111.139 354.37 112.736V123.51H359.158V125.904L354.968 131.89C356.405 136.2 358.36 139.272 359.158 140.27V145.657H356.165V148.65C361.433 150.086 366.341 148.051 368.137 146.854H372.925L378.312 151.044L383.7 148.65L398.065 158.227H418.417L420.811 155.833H430.388V164.811C432.782 168.163 440.963 172.992 444.754 174.987L452.535 166.008L448.944 163.614V152.241H452.535V138.474C460.197 134.164 468.098 133.486 471.091 133.686V114.531L481.267 106.75V81.6099V75.0256H476.478L478.872 66.6456L472.288 59.4628H459.718L457.922 62.4556H454.929L451.338 45.6957H432.782V31.33L427.994 24.7457H422.607L414.227 31.33C409.039 28.7362 398.784 22.4711 399.262 18.1614C399.741 13.8517 397.068 5.59142 395.671 2L368.137 7.98571Z" fill="#8FBB39" stroke="white" stroke-width="2"/>
<path d="M634.499 282.731H641.083V276.745H637.492V266.569L611.753 250.408C611.753 251.804 610.915 254.598 607.563 254.598C604.211 254.598 604.171 251.804 604.57 250.408H590.803L587.211 245.619L575.838 252.203C575.838 260.344 570.252 261.581 567.458 261.182V271.956H550.698V276.745H555.487C555.487 285.843 552.295 288.118 550.698 288.118L557.283 293.505V311.462L544.713 328.82L555.487 337.2L548.903 341.989L555.487 355.158L553.691 370.122H528.551C526.157 378.701 520.291 395.86 515.981 395.86C511.672 395.86 510.195 389.077 509.996 385.685H499.82C499.82 388.558 492.238 394.863 488.447 397.656L465.103 390.473V408.43L458.519 412.022V422.796L475.877 449.133L470.492 461.105H479.469L483.659 456.915H493.834L496.827 464.097L502.813 468.287V479.062H496.827V486.843L493.834 488.639V492.829H488.447L484.856 500.012L478.271 500.61L466.899 511.385L456.124 500.61L445.949 506.596L438.766 494.625H430.386V500.61H426.794L417.816 516.772L426.794 531.736V547.897L441.16 554.482L435.174 562.862L445.949 567.65L441.16 578.424H433.379V585.009H422.604V596.382L400.457 599.973L397.465 616.733L376.514 614.937L371.726 619.726C342.396 615.536 343.593 625.712 343.593 629.902C343.593 634.092 351.973 635.887 357.36 638.282C361.67 640.197 360.752 653.844 359.754 660.429L352.571 665.816L355.564 670.006L365.141 668.809L367.536 677.787C362.148 677.787 338.805 684.97 345.389 688.561C350.657 691.435 357.959 698.139 360.952 701.131L373.522 693.35L389.085 703.526H397.465V696.941L425 693.35C405.367 651.69 432.383 630.899 448.344 625.712L470.492 604.762H483.659C483.18 610.029 488.647 612.543 491.441 613.142H508.799C512.151 613.142 512.191 617.93 511.792 620.324L524.961 621.522L535.735 603.564L547.108 611.346L537.531 621.522L555.488 619.127V631.697H574.642L583.62 639.479H602.176L632.105 631.697L632.703 624.514H626.119L635.098 611.346H644.076L647.668 599.973H657.843V592.192L676.998 582.614V573.636L686.575 558.672V551.489C666.463 563.939 649.064 547.498 642.879 537.722V531.137L637.492 522.757L642.879 518.567C640.006 512.342 646.47 510.387 650.062 510.187L646.47 499.413L630.908 493.427L621.33 476.069C617.021 474.153 630.309 472.477 637.492 471.879L648.266 465.295L653.055 452.126L642.879 444.943C642.879 436.803 634.1 432.373 629.71 431.176V417.409C640.724 417.409 643.079 411.423 642.879 408.43L632.105 394.065V382.692L626.718 374.91H611.753L604.57 377.903L600.38 382.692L604.57 388.079L593.796 395.86H581.825V388.079L590.803 384.488V374.91H584.219C588.05 374.432 590.205 363.937 590.803 358.749L607.563 343.785V328.82C618.737 318.046 640.365 296.498 637.492 296.498C634.619 296.498 631.107 294.502 629.71 293.505L634.499 282.731Z" fill="#F5B843" stroke="white" stroke-width="2"/>
</g>
<path d="M512.77 522.14L511.84 525.92C510.07 524.96 508.69 524.72 507.34 524.72C505.3 524.72 504.01 525.41 504.01 526.94C504.01 528.11 504.73 528.59 506.44 529.31L508.96 530.36C511.63 531.47 513.49 533 513.49 536.12C513.49 540.05 510.67 542.3 506.17 542.3C503.83 542.3 501.67 541.76 500.2 540.89V536.84C502 538.01 504.25 538.7 506.44 538.7C508.42 538.7 509.47 537.98 509.47 536.3C509.47 535.22 508.57 534.65 506.68 533.84L503.92 532.67C501.97 531.86 499.99 530.57 499.99 527.12C499.99 523.43 502.84 521.06 507.76 521.06C509.59 521.06 511.6 521.48 512.77 522.14ZM519.729 534.26C519.729 537.32 520.989 538.79 523.509 538.79C526.029 538.79 527.289 537.32 527.289 534.26V521.36H531.309V534.77C531.309 539.72 528.609 542.48 523.509 542.48C518.409 542.48 515.709 539.72 515.709 534.77V521.36H519.729V534.26ZM534.724 542V521.36H542.704C549.454 521.36 553.084 525.77 553.084 531.5C553.084 537.44 549.364 542 542.404 542H534.724ZM538.744 524.99V538.37H542.404C546.874 538.37 549.004 535.37 549.004 531.62C549.004 527.96 546.934 524.99 542.524 524.99H538.744ZM560.33 542V521.36H574.28L573.32 525.02H564.35V529.58H572.18L571.22 533.21H564.35V538.34H573.95L574.94 542H560.33ZM588.766 522.14L587.836 525.92C586.066 524.96 584.686 524.72 583.336 524.72C581.296 524.72 580.006 525.41 580.006 526.94C580.006 528.11 580.726 528.59 582.436 529.31L584.956 530.36C587.626 531.47 589.486 533 589.486 536.12C589.486 540.05 586.666 542.3 582.166 542.3C579.826 542.3 577.666 541.76 576.196 540.89V536.84C577.996 538.01 580.246 538.7 582.436 538.7C584.416 538.7 585.466 537.98 585.466 536.3C585.466 535.22 584.566 534.65 582.676 533.84L579.916 532.67C577.966 531.86 575.986 530.57 575.986 527.12C575.986 523.43 578.836 521.06 583.756 521.06C585.586 521.06 587.596 521.48 588.766 522.14ZM606.769 521.36V525.02H600.649V542H596.629V525.02H589.699L590.659 521.36H606.769Z" fill="#A96F00"/>
<path d="M79.09 246L85.78 225.36H91.66L98.2 246H94.03L92.59 241.38H84.61L83.14 246H79.09ZM85.69 237.96H91.54L88.63 228.63L85.69 237.96ZM113.439 225.36V229.02H107.319V246H103.299V229.02H96.3688L97.3288 225.36H113.439ZM115.252 246V225.36H119.272V242.34H128.962L128.032 246H115.252ZM128.983 246L135.673 225.36H141.553L148.093 246H143.923L142.483 241.38H134.503L133.033 246H128.983ZM135.583 237.96H141.433L138.523 228.63L135.583 237.96ZM149.91 246V225.36H155.04L162.57 239.88V225.36H166.53V246H161.82L153.87 230.7V246H149.91ZM185.158 225.36V229.02H179.038V246H175.018V229.02H168.088L169.048 225.36H185.158ZM187.12 246V225.36H191.14V246H187.12ZM204.723 228.54C200.073 228.54 197.613 231.96 197.613 235.62C197.613 239.34 200.073 242.82 204.723 242.82C205.563 242.82 206.373 242.7 207.063 242.49L203.763 238.83L206.493 236.52L210.093 240.54C211.233 239.22 211.833 237.45 211.833 235.62C211.833 231.96 209.373 228.54 204.723 228.54ZM204.723 224.85C212.073 224.85 215.943 229.86 215.943 235.62C215.943 238.68 214.863 241.53 212.793 243.54L214.863 245.82L212.133 248.13L209.793 245.52C208.353 246.15 206.643 246.51 204.723 246.51C197.373 246.51 193.503 241.44 193.503 235.62C193.503 229.86 197.373 224.85 204.723 224.85ZM222.249 238.26C222.249 241.32 223.509 242.79 226.029 242.79C228.549 242.79 229.809 241.32 229.809 238.26V225.36H233.829V238.77C233.829 243.72 231.129 246.48 226.029 246.48C220.929 246.48 218.229 243.72 218.229 238.77V225.36H222.249V238.26ZM237.244 246V225.36H251.194L250.234 229.02H241.264V233.58H249.094L248.134 237.21H241.264V242.34H250.864L251.854 246H237.244Z" fill="#004F91"/>
<path d="M546.74 208V187.36H560.69L559.73 191.02H550.76V195.58H558.59L557.63 199.21H550.76V204.34H560.36L561.35 208H546.74ZM575.176 188.14L574.246 191.92C572.476 190.96 571.096 190.72 569.746 190.72C567.706 190.72 566.416 191.41 566.416 192.94C566.416 194.11 567.136 194.59 568.846 195.31L571.366 196.36C574.036 197.47 575.896 199 575.896 202.12C575.896 206.05 573.076 208.3 568.576 208.3C566.236 208.3 564.076 207.76 562.606 206.89V202.84C564.406 204.01 566.656 204.7 568.846 204.7C570.826 204.7 571.876 203.98 571.876 202.3C571.876 201.22 570.976 200.65 569.086 199.84L566.326 198.67C564.376 197.86 562.396 196.57 562.396 193.12C562.396 189.43 565.246 187.06 570.166 187.06C571.996 187.06 574.006 187.48 575.176 188.14ZM593.179 187.36V191.02H587.059V208H583.039V191.02H576.109L577.069 187.36H593.179Z" fill="#430087"/>
<path d="M376.89 199V178.36H380.91V199H376.89ZM384.533 199V178.36H392.513C399.263 178.36 402.893 182.77 402.893 188.5C402.893 194.44 399.173 199 392.213 199H384.533ZM388.553 181.99V195.37H392.213C396.683 195.37 398.813 192.37 398.813 188.62C398.813 184.96 396.743 181.99 392.333 181.99H388.553ZM405.187 199V178.36H419.137L418.147 182.02H409.207V186.79H416.917L415.957 190.42H409.207V199H405.187Z" fill="#006D74"/>
<path d="M371.74 110V89.36H376.87L384.4 103.88V89.36H388.36V110H383.65L375.7 94.7V110H371.74ZM401.858 92.54C397.208 92.54 394.748 95.96 394.748 99.62C394.748 103.34 397.208 106.82 401.858 106.82C406.508 106.82 408.968 103.34 408.968 99.62C408.968 95.96 406.508 92.54 401.858 92.54ZM401.858 88.85C409.208 88.85 413.078 93.86 413.078 99.62C413.078 105.44 409.208 110.51 401.858 110.51C394.508 110.51 390.638 105.44 390.638 99.62C390.638 93.86 394.508 88.85 401.858 88.85ZM415.363 110V89.36H423.643C427.873 89.36 430.093 92.03 430.093 95.51C430.093 98.27 428.833 100.55 426.073 101.48L430.093 110H425.623L421.873 101.96H419.383V110H415.363ZM419.383 92.99V98.54H423.223C425.173 98.54 426.013 97.31 426.013 95.72C426.013 94.22 425.203 92.99 423.313 92.99H419.383ZM432.678 110V89.36H440.658C447.408 89.36 451.038 93.77 451.038 99.5C451.038 105.44 447.318 110 440.358 110H432.678ZM436.698 92.99V106.37H440.358C444.828 106.37 446.958 103.37 446.958 99.62C446.958 95.96 444.888 92.99 440.478 92.99H436.698Z" fill="#537D00"/>
</g>
<defs>
<filter id="filter0_d_156_7" x="0.789062" y="0.841797" width="702.211" height="711.684" filterUnits="userSpaceOnUse" color-interpolation-filters="sRGB">
<feFlood flood-opacity="0" result="BackgroundImageFix"/>
<feColorMatrix in="SourceAlpha" type="matrix" values="0 0 0 0 0 0 0 0 0 0 0 0 0 0 0 0 0 0 127 0" result="hardAlpha"/>
<feOffset dy="4"/>
<feGaussianBlur stdDeviation="2"/>
<feComposite in2="hardAlpha" operator="out"/>
<feColorMatrix type="matrix" values="0 0 0 0 0 0 0 0 0 0 0 0 0 0 0 0 0 0 0.25 0"/>
<feBlend mode="normal" in2="BackgroundImageFix" result="effect1_dropShadow_156_7"/>
<feBlend mode="normal" in="SourceGraphic" in2="effect1_dropShadow_156_7" result="shape"/>
</filter>
<filter id="filter1_i_156_7" x="4.78906" y="0.841797" width="694.211" height="707.684" filterUnits="userSpaceOnUse" color-interpolation-filters="sRGB">
<feFlood flood-opacity="0" result="BackgroundImageFix"/>
<feBlend mode="normal" in="SourceGraphic" in2="BackgroundImageFix" result="shape"/>
<feColorMatrix in="SourceAlpha" type="matrix" values="0 0 0 0 0 0 0 0 0 0 0 0 0 0 0 0 0 0 127 0" result="hardAlpha"/>
<feOffset dy="4"/>
<feGaussianBlur stdDeviation="2"/>
<feComposite in2="hardAlpha" operator="arithmetic" k2="-1" k3="1"/>
<feColorMatrix type="matrix" values="0 0 0 0 0 0 0 0 0 0 0 0 0 0 0 0 0 0 0.25 0"/>
<feBlend mode="normal" in2="shape" result="effect1_innerShadow_156_7"/>
</filter>
</defs>
</svg>
