<svg width="46" height="46" viewBox="0 0 46 46" fill="none" xmlns="http://www.w3.org/2000/svg">
<g clip-path="url(#clip0_933_2097)">
<path d="M11.1977 16.2077C11.0657 18.2731 13.4205 20.1079 10.3199 19.9093C7.21919 19.7107 0.514531 16.7752 0.595445 15.5287C0.676359 14.2822 5.21912 12.0673 8.31979 12.2658C11.4205 12.4632 11.331 14.141 11.1977 16.2077ZM36.4159 36.1864C36.1742 36.1547 35.9285 36.1969 35.7113 36.3074C32.806 36.6069 31.6723 33.9644 31.6723 33.9644C31.1222 33.5462 30.4378 31.4572 29.6811 32.4522L29.9206 34.2039C30.1601 35.9556 33.1463 38.2233 33.1463 38.2233L31.634 40.2146C31.5348 40.3453 31.4622 40.4943 31.4205 40.6531C31.3788 40.8119 31.3688 40.9774 31.391 41.14C31.4132 41.3027 31.4673 41.4594 31.5501 41.6011C31.6329 41.7429 31.7428 41.867 31.8735 41.9663C32.0043 42.0656 32.1533 42.1381 32.3121 42.1798C32.4709 42.2215 32.6363 42.2316 32.799 42.2093C32.9617 42.1871 33.1184 42.133 33.2601 42.0502C33.4019 41.9674 33.526 41.8575 33.6253 41.7268L34.4629 40.624L34.4152 40.9354C34.3642 41.2632 34.4455 41.5977 34.6412 41.8655C34.8369 42.1332 35.1309 42.3123 35.4586 42.3633C35.7863 42.4143 36.1209 42.333 36.3886 42.1373C36.6564 41.9416 36.8355 41.6476 36.8864 41.3198L37.4618 37.6142C37.5118 37.2862 37.4299 36.9518 37.2338 36.6842C37.0378 36.4166 36.7436 36.2376 36.4159 36.1864ZM28.571 36.9908C28.3355 36.9281 28.0866 36.9367 27.856 37.0157C24.937 36.9227 24.1666 34.1528 24.1666 34.1528C23.6775 33.6644 23.2792 31.5019 22.3958 32.3873L22.3979 34.1548C22.3999 35.9223 25.0561 38.5699 25.0561 38.5699L23.2907 40.3407C23.1747 40.4568 23.0828 40.5947 23.0202 40.7464C22.9576 40.8982 22.9254 41.0607 22.9256 41.2248C22.9258 41.389 22.9583 41.5514 23.0213 41.703C23.0843 41.8546 23.1765 41.9922 23.2927 42.1082C23.4089 42.2241 23.5468 42.316 23.6985 42.3786C23.8502 42.4413 24.0128 42.4734 24.1769 42.4732C24.341 42.473 24.5035 42.4405 24.6551 42.3775C24.8066 42.3145 24.9443 42.2223 25.0602 42.1061L26.0382 41.1254L25.948 41.4282C25.8536 41.7461 25.8893 42.0885 26.0473 42.3801C26.2053 42.6717 26.4727 42.8885 26.7906 42.983C27.1085 43.0774 27.4509 43.0417 27.7425 42.8836C28.034 42.7256 28.2509 42.4583 28.3453 42.1404L29.4111 38.5456C29.4586 38.3883 29.4746 38.2233 29.458 38.0598C29.4415 37.8964 29.3928 37.7378 29.3147 37.5933C29.2366 37.4488 29.1307 37.3211 29.003 37.2177C28.8754 37.1143 28.7285 37.0372 28.571 36.9908Z" fill="#FFAC33"/>
<path d="M43.7882 8.41223C43.3088 8.2013 42.8405 8.34409 42.4767 8.72153C42.4094 8.79175 37.2213 16.6213 24.3321 14.961C23.9069 14.9062 28.3048 29.9081 28.3798 29.9004C28.5348 29.8823 32.2158 29.4278 36.0443 26.684C39.5586 24.1662 43.8747 19.1695 44.4848 9.6587C44.5181 9.13609 44.2676 8.62441 43.7882 8.41223Z" fill="#C52440"/>
<path d="M43.1821 26.3881C42.9257 25.9689 42.4423 25.6905 41.9564 25.8033C40.3414 26.1774 37.9624 26.4952 36.2958 26.3881C28.3478 25.8792 24.5777 21.2653 24.5388 21.2267C24.1939 20.8753 25.1686 35.6647 25.6062 35.6932C37.1012 36.4306 42.9089 28.1027 43.1515 27.7482C43.4277 27.3398 43.4397 26.8085 43.1821 26.3881Z" fill="#C52440"/>
<path d="M30.8106 23.8132C30.3694 30.7022 32.496 36.134 25.607 35.6916C18.718 35.2504 12.9057 29.5832 13.3468 22.693C13.788 15.8027 31.253 16.9242 30.8106 23.8132Z" fill="#C52440"/>
<path d="M29.122 15.5637C28.7022 22.1089 24.2575 27.151 17.7135 26.7312C11.1684 26.3114 6.20236 20.6664 6.62215 14.1213C7.04195 7.57609 12.6275 3.54651 19.1727 3.9663C24.175 4.28615 29.4918 9.78625 29.122 15.5637Z" fill="#C52440"/>
<path d="M13.3826 13.8375C14.7633 13.833 15.8789 12.71 15.8744 11.3293C15.8699 9.94859 14.7469 8.83298 13.3662 8.83751C11.9855 8.84203 10.8699 9.96499 10.8744 11.3457C10.8789 12.7264 12.0019 13.842 13.3826 13.8375Z" fill="#292F33"/>
<path d="M22.9974 20.4812C22.9974 20.4812 32.5579 27.5099 38.4627 14.8567C38.9543 13.8026 40.5722 15.8411 38.6036 20.0588C36.6349 24.2765 28.4112 28.1423 23.5599 22.0281C22.5369 20.7377 22.9974 20.4812 22.9974 20.4812Z" fill="#902B6B"/>
<path d="M19.1713 3.96605C19.1713 3.96605 26.9798 4.25796 28.9168 3.33785C30.8538 2.41775 29.0988 7.00227 24.8548 8.08744C20.6109 9.17261 19.1713 3.96605 19.1713 3.96605Z" fill="#902B6C"/>
<path d="M21.8083 7.30716C21.8083 7.30716 27.4351 7.45872 29.3733 6.53986C31.3116 5.621 29.5553 10.2043 25.3114 11.2895C21.0662 12.3746 21.8083 7.30716 21.8083 7.30716Z" fill="#902B6B"/>
</g>
<defs>
<clipPath id="clip0_933_2097">
<rect width="45" height="45" fill="white" transform="translate(0 0.144531) rotate(-0.187831)"/>
</clipPath>
</defs>
</svg>
